<?xml version="1.0" encoding="UTF-8" standalone="no"?>
<svg version="1.1" xmlns="http://www.w3.org/2000/svg" width="1000px" height="200px" x="0" y="0" viewBox="0 0 1000 200"><g><rect fill="#f2f2f2" x="0" y="0" width="1000" height="200"/></g><g><circle cx="500" cy="100" r="4.544405997693194" fill="#dcdcdc" fill-opacity="1"/><circle cx="491.33974596215563" cy="115" r="4.6366782006920415" fill="#dcdcdc" fill-opacity="1"/><circle cx="508.66025403784437" cy="115" r="4.49826989619377" fill="#dcdcdc" fill-opacity="1"/><circle cx="517.3205080756887" cy="100" r="4.405997693194925" fill="#dcdcdc" fill-opacity="1"/><circle cx="508.66025403784437" cy="85" r="4.49826989619377" fill="#dcdcdc" fill-opacity="1"/><circle cx="491.33974596215563" cy="85" r="4.6366782006920415" fill="#dcdcdc" fill-opacity="1"/><circle cx="482.6794919243112" cy="100" r="4.728950403690888" fill="#dcdcdc" fill-opacity="1"/><circle cx="482.6794919243112" cy="130" r="4.728950403690888" fill="#dcdcdc" fill-opacity="1"/><circle cx="500" cy="130" r="4.544405997693194" fill="#dcdcdc" fill-opacity="1"/><circle cx="517.3205080756887" cy="130" r="4.405997693194925" fill="#dcdcdc" fill-opacity="1"/><circle cx="525.9807621135332" cy="115" r="4.313725490196079" fill="#dcdcdc" fill-opacity="1"/><circle cx="534.6410161513776" cy="100" r="4.221453287197231" fill="#dcdcdc" fill-opacity="1"/><circle cx="525.9807621135332" cy="85" r="4.313725490196079" fill="#dcdcdc" fill-opacity="1"/><circle cx="517.3205080756887" cy="70" r="4.405997693194925" fill="#dcdcdc" fill-opacity="1"/><circle cx="500" cy="70" r="4.544405997693194" fill="#dcdcdc" fill-opacity="1"/><circle cx="482.6794919243112" cy="70" r="4.728950403690888" fill="#dcdcdc" fill-opacity="1"/><circle cx="474.01923788646684" cy="85" r="4.821222606689735" fill="#dcdcdc" fill-opacity="1"/><circle cx="465.3589838486225" cy="100" r="4.867358708189158" fill="#dcdcdc" fill-opacity="1"/><circle cx="474.01923788646684" cy="115" r="4.821222606689735" fill="#dcdcdc" fill-opacity="1"/><circle cx="474.01923788646684" cy="145" r="4.821222606689735" fill="#dcdcdc" fill-opacity="1"/><circle cx="491.33974596215563" cy="145" r="4.6366782006920415" fill="#dcdcdc" fill-opacity="1"/><circle cx="508.66025403784437" cy="145" r="4.49826989619377" fill="#dcdcdc" fill-opacity="1"/><circle cx="525.9807621135332" cy="145" r="4.313725490196079" fill="#dcdcdc" fill-opacity="1"/><circle cx="534.6410161513776" cy="130" r="4.221453287197231" fill="#dcdcdc" fill-opacity="1"/><circle cx="543.3012701892219" cy="115" r="4.175317185697808" fill="#dcdcdc" fill-opacity="1"/><circle cx="551.9615242270663" cy="100" r="4.083044982698961" fill="#dcdcdc" fill-opacity="1"/><circle cx="543.3012701892219" cy="85" r="4.175317185697808" fill="#dcdcdc" fill-opacity="1"/><circle cx="534.6410161513776" cy="70" r="4.221453287197231" fill="#dcdcdc" fill-opacity="1"/><circle cx="525.9807621135332" cy="55" r="4.313725490196079" fill="#dcdcdc" fill-opacity="1"/><circle cx="508.66025403784437" cy="55" r="4.49826989619377" fill="#dcdcdc" fill-opacity="1"/><circle cx="491.33974596215563" cy="55" r="4.6366782006920415" fill="#dcdcdc" fill-opacity="1"/><circle cx="474.01923788646684" cy="55" r="4.821222606689735" fill="#dcdcdc" fill-opacity="1"/><circle cx="465.3589838486225" cy="70" r="4.867358708189158" fill="#dcdcdc" fill-opacity="1"/><circle cx="456.6987298107781" cy="85" r="4.959630911188004" fill="#dcdcdc" fill-opacity="1"/><circle cx="448.0384757729337" cy="100" r="5.051903114186851" fill="#dcdcdc" fill-opacity="1"/><circle cx="456.6987298107781" cy="115" r="4.959630911188004" fill="#dcdcdc" fill-opacity="1"/><circle cx="465.3589838486225" cy="130" r="4.867358708189158" fill="#dcdcdc" fill-opacity="1"/><circle cx="465.3589838486225" cy="160" r="4.867358708189158" fill="#dcdcdc" fill-opacity="1"/><circle cx="482.6794919243112" cy="160" r="4.728950403690888" fill="#dcdcdc" fill-opacity="1"/><circle cx="500" cy="160" r="4.544405997693194" fill="#dcdcdc" fill-opacity="1"/><circle cx="517.3205080756887" cy="160" r="4.405997693194925" fill="#dcdcdc" fill-opacity="1"/><circle cx="534.6410161513776" cy="160" r="4.221453287197231" fill="#dcdcdc" fill-opacity="1"/><circle cx="543.3012701892219" cy="145" r="4.175317185697808" fill="#dcdcdc" fill-opacity="1"/><circle cx="551.9615242270663" cy="130" r="4.083044982698961" fill="#dcdcdc" fill-opacity="1"/><circle cx="560.6217782649107" cy="115" r="3.990772779700116" fill="#dcdcdc" fill-opacity="1"/><circle cx="569.282032302755" cy="100" r="3.8985005767012693" fill="#dcdcdc" fill-opacity="1"/><circle cx="560.6217782649107" cy="85" r="3.990772779700116" fill="#dcdcdc" fill-opacity="1"/><circle cx="551.9615242270663" cy="70" r="4.083044982698961" fill="#dcdcdc" fill-opacity="1"/><circle cx="543.3012701892219" cy="55" r="4.175317185697808" fill="#dcdcdc" fill-opacity="1"/><circle cx="534.6410161513776" cy="40" r="4.221453287197231" fill="#dcdcdc" fill-opacity="1"/><circle cx="517.3205080756887" cy="40" r="4.405997693194925" fill="#dcdcdc" fill-opacity="1"/><circle cx="500" cy="40" r="4.544405997693194" fill="#dcdcdc" fill-opacity="1"/><circle cx="482.6794919243112" cy="40" r="4.728950403690888" fill="#dcdcdc" fill-opacity="1"/><circle cx="465.3589838486225" cy="40" r="4.867358708189158" fill="#dcdcdc" fill-opacity="1"/><circle cx="456.6987298107781" cy="55" r="4.959630911188004" fill="#dcdcdc" fill-opacity="1"/><circle cx="448.0384757729337" cy="70" r="5.051903114186851" fill="#dcdcdc" fill-opacity="1"/><circle cx="439.3782217350893" cy="85" r="5.144175317185697" fill="#dcdcdc" fill-opacity="1"/><circle cx="430.71796769724494" cy="100" r="5.190311418685121" fill="#dcdcdc" fill-opacity="1"/><circle cx="439.3782217350893" cy="115" r="5.144175317185697" fill="#dcdcdc" fill-opacity="1"/><circle cx="448.0384757729337" cy="130" r="5.051903114186851" fill="#dcdcdc" fill-opacity="1"/><circle cx="456.6987298107781" cy="145" r="4.959630911188004" fill="#dcdcdc" fill-opacity="1"/><circle cx="456.6987298107781" cy="175" r="4.959630911188004" fill="#dcdcdc" fill-opacity="1"/><circle cx="474.01923788646684" cy="175" r="4.821222606689735" fill="#dcdcdc" fill-opacity="1"/><circle cx="491.33974596215563" cy="175" r="4.6366782006920415" fill="#dcdcdc" fill-opacity="1"/><circle cx="508.66025403784437" cy="175" r="4.49826989619377" fill="#dcdcdc" fill-opacity="1"/><circle cx="525.9807621135332" cy="175" r="4.313725490196079" fill="#dcdcdc" fill-opacity="1"/><circle cx="543.3012701892219" cy="175" r="4.175317185697808" fill="#dcdcdc" fill-opacity="1"/><circle cx="551.9615242270663" cy="160" r="4.083044982698961" fill="#dcdcdc" fill-opacity="1"/><circle cx="560.6217782649107" cy="145" r="3.990772779700116" fill="#dcdcdc" fill-opacity="1"/><circle cx="569.282032302755" cy="130" r="3.8985005767012693" fill="#dcdcdc" fill-opacity="1"/><circle cx="577.9422863405995" cy="115" r="3.8523644752018438" fill="#dcdcdc" fill-opacity="1"/><circle cx="586.6025403784438" cy="100" r="3.760092272202998" fill="#dcdcdc" fill-opacity="1"/><circle cx="577.9422863405995" cy="85" r="3.8523644752018438" fill="#dcdcdc" fill-opacity="1"/><circle cx="569.282032302755" cy="70" r="3.8985005767012693" fill="#dcdcdc" fill-opacity="1"/><circle cx="560.6217782649107" cy="55" r="3.990772779700116" fill="#dcdcdc" fill-opacity="1"/><circle cx="551.9615242270663" cy="40" r="4.083044982698961" fill="#dcdcdc" fill-opacity="1"/><circle cx="543.3012701892219" cy="25" r="4.175317185697808" fill="#dcdcdc" fill-opacity="1"/><circle cx="525.9807621135332" cy="25" r="4.313725490196079" fill="#dcdcdc" fill-opacity="1"/><circle cx="508.66025403784437" cy="25" r="4.49826989619377" fill="#dcdcdc" fill-opacity="1"/><circle cx="491.33974596215563" cy="25" r="4.6366782006920415" fill="#dcdcdc" fill-opacity="1"/><circle cx="474.01923788646684" cy="25" r="4.821222606689735" fill="#dcdcdc" fill-opacity="1"/><circle cx="456.6987298107781" cy="25" r="4.959630911188004" fill="#dcdcdc" fill-opacity="1"/><circle cx="448.0384757729337" cy="40" r="5.051903114186851" fill="#dcdcdc" fill-opacity="1"/><circle cx="439.3782217350893" cy="55" r="5.144175317185697" fill="#dcdcdc" fill-opacity="1"/><circle cx="430.71796769724494" cy="70" r="5.190311418685121" fill="#dcdcdc" fill-opacity="1"/><circle cx="422.0577136594005" cy="85" r="5.282583621683968" fill="#dcdcdc" fill-opacity="1"/><circle cx="413.39745962155615" cy="100" r="5.374855824682814" fill="#dcdcdc" fill-opacity="1"/><circle cx="422.0577136594005" cy="115" r="5.282583621683968" fill="#dcdcdc" fill-opacity="1"/><circle cx="430.71796769724494" cy="130" r="5.190311418685121" fill="#dcdcdc" fill-opacity="1"/><circle cx="439.3782217350893" cy="145" r="5.144175317185697" fill="#dcdcdc" fill-opacity="1"/><circle cx="448.0384757729337" cy="160" r="5.051903114186851" fill="#dcdcdc" fill-opacity="1"/><circle cx="448.0384757729337" cy="190" r="5.051903114186851" fill="#dcdcdc" fill-opacity="1"/><circle cx="465.3589838486225" cy="190" r="4.867358708189158" fill="#dcdcdc" fill-opacity="1"/><circle cx="482.6794919243112" cy="190" r="4.728950403690888" fill="#dcdcdc" fill-opacity="1"/><circle cx="500" cy="190" r="4.544405997693194" fill="#dcdcdc" fill-opacity="1"/><circle cx="517.3205080756887" cy="190" r="4.405997693194925" fill="#dcdcdc" fill-opacity="1"/><circle cx="534.6410161513776" cy="190" r="4.221453287197231" fill="#dcdcdc" fill-opacity="1"/><circle cx="551.9615242270663" cy="190" r="4.083044982698961" fill="#dcdcdc" fill-opacity="1"/><circle cx="560.6217782649107" cy="175" r="3.990772779700116" fill="#dcdcdc" fill-opacity="1"/><circle cx="569.282032302755" cy="160" r="3.8985005767012693" fill="#dcdcdc" fill-opacity="1"/><circle cx="577.9422863405995" cy="145" r="3.8523644752018438" fill="#dcdcdc" fill-opacity="1"/><circle cx="586.6025403784438" cy="130" r="3.760092272202998" fill="#dcdcdc" fill-opacity="1"/><circle cx="595.2627944162882" cy="115" r="3.6678200692041516" fill="#dcdcdc" fill-opacity="1"/><circle cx="603.9230484541326" cy="100" r="3.5755478662053064" fill="#dcdcdc" fill-opacity="1"/><circle cx="595.2627944162882" cy="85" r="3.6678200692041516" fill="#dcdcdc" fill-opacity="1"/><circle cx="586.6025403784438" cy="70" r="3.760092272202998" fill="#dcdcdc" fill-opacity="1"/><circle cx="577.9422863405995" cy="55" r="3.8523644752018438" fill="#dcdcdc" fill-opacity="1"/><circle cx="569.282032302755" cy="40" r="3.8985005767012693" fill="#dcdcdc" fill-opacity="1"/><circle cx="560.6217782649107" cy="25" r="3.990772779700116" fill="#dcdcdc" fill-opacity="1"/><circle cx="551.9615242270663" cy="10" r="4.083044982698961" fill="#dcdcdc" fill-opacity="1"/><circle cx="534.6410161513776" cy="10" r="4.221453287197231" fill="#dcdcdc" fill-opacity="1"/><circle cx="517.3205080756887" cy="10" r="4.405997693194925" fill="#dcdcdc" fill-opacity="1"/><circle cx="500" cy="10" r="4.544405997693194" fill="#dcdcdc" fill-opacity="1"/><circle cx="482.6794919243112" cy="10" r="4.728950403690888" fill="#dcdcdc" fill-opacity="1"/><circle cx="465.3589838486225" cy="10" r="4.867358708189158" fill="#dcdcdc" fill-opacity="1"/><circle cx="448.0384757729337" cy="10" r="5.051903114186851" fill="#dcdcdc" fill-opacity="1"/><circle cx="439.3782217350893" cy="25" r="5.144175317185697" fill="#dcdcdc" fill-opacity="1"/><circle cx="430.71796769724494" cy="40" r="5.190311418685121" fill="#dcdcdc" fill-opacity="1"/><circle cx="422.0577136594005" cy="55" r="5.282583621683968" fill="#dcdcdc" fill-opacity="1"/><circle cx="413.39745962155615" cy="70" r="5.374855824682814" fill="#dcdcdc" fill-opacity="1"/><circle cx="404.7372055837118" cy="85" r="5.46712802768166" fill="#dcdcdc" fill-opacity="1"/><circle cx="396.07695154586736" cy="100" r="5.513264129181083" fill="#dcdcdc" fill-opacity="1"/><circle cx="404.7372055837118" cy="115" r="5.46712802768166" fill="#dcdcdc" fill-opacity="1"/><circle cx="413.39745962155615" cy="130" r="5.374855824682814" fill="#dcdcdc" fill-opacity="1"/><circle cx="422.0577136594005" cy="145" r="5.282583621683968" fill="#dcdcdc" fill-opacity="1"/><circle cx="430.71796769724494" cy="160" r="5.190311418685121" fill="#dcdcdc" fill-opacity="1"/><circle cx="439.3782217350893" cy="175" r="5.144175317185697" fill="#dcdcdc" fill-opacity="1"/><circle cx="439.3782217350893" cy="205" r="5.144175317185697" fill="#dcdcdc" fill-opacity="1"/><circle cx="456.6987298107781" cy="205" r="4.959630911188004" fill="#dcdcdc" fill-opacity="1"/><circle cx="474.01923788646684" cy="205" r="4.821222606689735" fill="#dcdcdc" fill-opacity="1"/><circle cx="491.33974596215563" cy="205" r="4.6366782006920415" fill="#dcdcdc" fill-opacity="1"/><circle cx="508.66025403784437" cy="205" r="4.49826989619377" fill="#dcdcdc" fill-opacity="1"/><circle cx="525.9807621135332" cy="205" r="4.313725490196079" fill="#dcdcdc" fill-opacity="1"/><circle cx="543.3012701892219" cy="205" r="4.175317185697808" fill="#dcdcdc" fill-opacity="1"/><circle cx="560.6217782649107" cy="205" r="3.990772779700116" fill="#dcdcdc" fill-opacity="1"/><circle cx="569.282032302755" cy="190" r="3.8985005767012693" fill="#dcdcdc" fill-opacity="1"/><circle cx="577.9422863405995" cy="175" r="3.8523644752018438" fill="#dcdcdc" fill-opacity="1"/><circle cx="586.6025403784438" cy="160" r="3.760092272202998" fill="#dcdcdc" fill-opacity="1"/><circle cx="595.2627944162882" cy="145" r="3.6678200692041516" fill="#dcdcdc" fill-opacity="1"/><circle cx="603.9230484541326" cy="130" r="3.5755478662053064" fill="#dcdcdc" fill-opacity="1"/><circle cx="612.5833024919771" cy="115" r="3.529411764705883" fill="#dcdcdc" fill-opacity="1"/><circle cx="621.2435565298214" cy="100" r="3.4371395617070344" fill="#dcdcdc" fill-opacity="1"/><circle cx="612.5833024919771" cy="85" r="3.529411764705883" fill="#dcdcdc" fill-opacity="1"/><circle cx="603.9230484541326" cy="70" r="3.5755478662053064" fill="#dcdcdc" fill-opacity="1"/><circle cx="595.2627944162882" cy="55" r="3.6678200692041516" fill="#dcdcdc" fill-opacity="1"/><circle cx="586.6025403784438" cy="40" r="3.760092272202998" fill="#dcdcdc" fill-opacity="1"/><circle cx="577.9422863405995" cy="25" r="3.8523644752018438" fill="#dcdcdc" fill-opacity="1"/><circle cx="569.282032302755" cy="10" r="3.8985005767012693" fill="#dcdcdc" fill-opacity="1"/><circle cx="560.6217782649107" cy="-5" r="3.990772779700116" fill="#dcdcdc" fill-opacity="1"/><circle cx="543.3012701892219" cy="-5" r="4.175317185697808" fill="#dcdcdc" fill-opacity="1"/><circle cx="525.9807621135332" cy="-5" r="4.313725490196079" fill="#dcdcdc" fill-opacity="1"/><circle cx="508.66025403784437" cy="-5" r="4.49826989619377" fill="#dcdcdc" fill-opacity="1"/><circle cx="491.33974596215563" cy="-5" r="4.6366782006920415" fill="#dcdcdc" fill-opacity="1"/><circle cx="474.01923788646684" cy="-5" r="4.821222606689735" fill="#dcdcdc" fill-opacity="1"/><circle cx="456.6987298107781" cy="-5" r="4.959630911188004" fill="#dcdcdc" fill-opacity="1"/><circle cx="439.3782217350893" cy="-5" r="5.144175317185697" fill="#dcdcdc" fill-opacity="1"/><circle cx="430.71796769724494" cy="10" r="5.190311418685121" fill="#dcdcdc" fill-opacity="1"/><circle cx="422.0577136594005" cy="25" r="5.282583621683968" fill="#dcdcdc" fill-opacity="1"/><circle cx="413.39745962155615" cy="40" r="5.374855824682814" fill="#dcdcdc" fill-opacity="1"/><circle cx="404.7372055837118" cy="55" r="5.46712802768166" fill="#dcdcdc" fill-opacity="1"/><circle cx="396.07695154586736" cy="70" r="5.513264129181083" fill="#dcdcdc" fill-opacity="1"/><circle cx="387.416697508023" cy="85" r="5.6055363321799305" fill="#dcdcdc" fill-opacity="1"/><circle cx="378.7564434701786" cy="100" r="5.697808535178778" fill="#dcdcdc" fill-opacity="1"/><circle cx="387.416697508023" cy="115" r="5.6055363321799305" fill="#dcdcdc" fill-opacity="1"/><circle cx="396.07695154586736" cy="130" r="5.513264129181083" fill="#dcdcdc" fill-opacity="1"/><circle cx="404.7372055837118" cy="145" r="5.46712802768166" fill="#dcdcdc" fill-opacity="1"/><circle cx="413.39745962155615" cy="160" r="5.374855824682814" fill="#dcdcdc" fill-opacity="1"/><circle cx="422.0577136594005" cy="175" r="5.282583621683968" fill="#dcdcdc" fill-opacity="1"/><circle cx="430.71796769724494" cy="190" r="5.190311418685121" fill="#dcdcdc" fill-opacity="1"/><circle cx="430.71796769724494" cy="220" r="5.190311418685121" fill="#dcdcdc" fill-opacity="1"/><circle cx="448.0384757729337" cy="220" r="5.051903114186851" fill="#dcdcdc" fill-opacity="1"/><circle cx="465.3589838486225" cy="220" r="4.867358708189158" fill="#dcdcdc" fill-opacity="1"/><circle cx="482.6794919243112" cy="220" r="4.728950403690888" fill="#dcdcdc" fill-opacity="1"/><circle cx="500" cy="220" r="4.544405997693194" fill="#dcdcdc" fill-opacity="1"/><circle cx="517.3205080756887" cy="220" r="4.405997693194925" fill="#dcdcdc" fill-opacity="1"/><circle cx="534.6410161513776" cy="220" r="4.221453287197231" fill="#dcdcdc" fill-opacity="1"/><circle cx="551.9615242270663" cy="220" r="4.083044982698961" fill="#dcdcdc" fill-opacity="1"/><circle cx="569.282032302755" cy="220" r="3.8985005767012693" fill="#dcdcdc" fill-opacity="1"/><circle cx="577.9422863405995" cy="205" r="3.8523644752018438" fill="#dcdcdc" fill-opacity="1"/><circle cx="586.6025403784438" cy="190" r="3.760092272202998" fill="#dcdcdc" fill-opacity="1"/><circle cx="595.2627944162882" cy="175" r="3.6678200692041516" fill="#dcdcdc" fill-opacity="1"/><circle cx="603.9230484541326" cy="160" r="3.5755478662053064" fill="#dcdcdc" fill-opacity="1"/><circle cx="612.5833024919771" cy="145" r="3.529411764705883" fill="#dcdcdc" fill-opacity="1"/><circle cx="621.2435565298214" cy="130" r="3.4371395617070344" fill="#dcdcdc" fill-opacity="1"/><circle cx="629.9038105676658" cy="115" r="3.34486735870819" fill="#dcdcdc" fill-opacity="1"/><circle cx="638.5640646055101" cy="100" r="3.2525951557093427" fill="#dcdcdc" fill-opacity="1"/><circle cx="629.9038105676658" cy="85" r="3.34486735870819" fill="#dcdcdc" fill-opacity="1"/><circle cx="621.2435565298214" cy="70" r="3.4371395617070344" fill="#dcdcdc" fill-opacity="1"/><circle cx="612.5833024919771" cy="55" r="3.529411764705883" fill="#dcdcdc" fill-opacity="1"/><circle cx="603.9230484541326" cy="40" r="3.5755478662053064" fill="#dcdcdc" fill-opacity="1"/><circle cx="595.2627944162882" cy="25" r="3.6678200692041516" fill="#dcdcdc" fill-opacity="1"/><circle cx="586.6025403784438" cy="10" r="3.760092272202998" fill="#dcdcdc" fill-opacity="1"/><circle cx="577.9422863405995" cy="-5" r="3.8523644752018438" fill="#dcdcdc" fill-opacity="1"/><circle cx="569.282032302755" cy="-20" r="3.8985005767012693" fill="#dcdcdc" fill-opacity="1"/><circle cx="551.9615242270663" cy="-20" r="4.083044982698961" fill="#dcdcdc" fill-opacity="1"/><circle cx="534.6410161513776" cy="-20" r="4.221453287197231" fill="#dcdcdc" fill-opacity="1"/><circle cx="517.3205080756887" cy="-20" r="4.405997693194925" fill="#dcdcdc" fill-opacity="1"/><circle cx="500" cy="-20" r="4.544405997693194" fill="#dcdcdc" fill-opacity="1"/><circle cx="482.6794919243112" cy="-20" r="4.728950403690888" fill="#dcdcdc" fill-opacity="1"/><circle cx="465.3589838486225" cy="-20" r="4.867358708189158" fill="#dcdcdc" fill-opacity="1"/><circle cx="448.0384757729337" cy="-20" r="5.051903114186851" fill="#dcdcdc" fill-opacity="1"/><circle cx="430.71796769724494" cy="-20" r="5.190311418685121" fill="#dcdcdc" fill-opacity="1"/><circle cx="422.0577136594005" cy="-5" r="5.282583621683968" fill="#dcdcdc" fill-opacity="1"/><circle cx="413.39745962155615" cy="10" r="5.374855824682814" fill="#dcdcdc" fill-opacity="1"/><circle cx="404.7372055837118" cy="25" r="5.46712802768166" fill="#dcdcdc" fill-opacity="1"/><circle cx="396.07695154586736" cy="40" r="5.513264129181083" fill="#dcdcdc" fill-opacity="1"/><circle cx="387.416697508023" cy="55" r="5.6055363321799305" fill="#dcdcdc" fill-opacity="1"/><circle cx="378.7564434701786" cy="70" r="5.697808535178778" fill="#dcdcdc" fill-opacity="1"/><circle cx="370.0961894323342" cy="85" r="5.7900807381776245" fill="#dcdcdc" fill-opacity="1"/><circle cx="361.43593539448983" cy="100" r="5.836216839677046" fill="#dcdcdc" fill-opacity="1"/><circle cx="370.0961894323342" cy="115" r="5.7900807381776245" fill="#dcdcdc" fill-opacity="1"/><circle cx="378.7564434701786" cy="130" r="5.697808535178778" fill="#dcdcdc" fill-opacity="1"/><circle cx="387.416697508023" cy="145" r="5.6055363321799305" fill="#dcdcdc" fill-opacity="1"/><circle cx="396.07695154586736" cy="160" r="5.513264129181083" fill="#dcdcdc" fill-opacity="1"/><circle cx="404.7372055837118" cy="175" r="5.46712802768166" fill="#dcdcdc" fill-opacity="1"/><circle cx="413.39745962155615" cy="190" r="5.374855824682814" fill="#dcdcdc" fill-opacity="1"/><circle cx="422.0577136594005" cy="205" r="5.282583621683968" fill="#dcdcdc" fill-opacity="1"/><circle cx="586.6025403784438" cy="220" r="3.760092272202998" fill="#dcdcdc" fill-opacity="1"/><circle cx="595.2627944162882" cy="205" r="3.6678200692041516" fill="#dcdcdc" fill-opacity="1"/><circle cx="603.9230484541326" cy="190" r="3.5755478662053064" fill="#dcdcdc" fill-opacity="1"/><circle cx="612.5833024919771" cy="175" r="3.529411764705883" fill="#dcdcdc" fill-opacity="1"/><circle cx="621.2435565298214" cy="160" r="3.4371395617070344" fill="#dcdcdc" fill-opacity="1"/><circle cx="629.9038105676658" cy="145" r="3.34486735870819" fill="#dcdcdc" fill-opacity="1"/><circle cx="638.5640646055101" cy="130" r="3.2525951557093427" fill="#dcdcdc" fill-opacity="1"/><circle cx="647.2243186433545" cy="115" r="3.160322952710496" fill="#dcdcdc" fill-opacity="1"/><circle cx="655.884572681199" cy="100" r="3.1141868512110737" fill="#dcdcdc" fill-opacity="1"/><circle cx="647.2243186433545" cy="85" r="3.160322952710496" fill="#dcdcdc" fill-opacity="1"/><circle cx="638.5640646055101" cy="70" r="3.2525951557093427" fill="#dcdcdc" fill-opacity="1"/><circle cx="629.9038105676658" cy="55" r="3.34486735870819" fill="#dcdcdc" fill-opacity="1"/><circle cx="621.2435565298214" cy="40" r="3.4371395617070344" fill="#dcdcdc" fill-opacity="1"/><circle cx="612.5833024919771" cy="25" r="3.529411764705883" fill="#dcdcdc" fill-opacity="1"/><circle cx="603.9230484541326" cy="10" r="3.5755478662053064" fill="#dcdcdc" fill-opacity="1"/><circle cx="595.2627944162882" cy="-5" r="3.6678200692041516" fill="#dcdcdc" fill-opacity="1"/><circle cx="586.6025403784438" cy="-20" r="3.760092272202998" fill="#dcdcdc" fill-opacity="1"/><circle cx="413.39745962155615" cy="-20" r="5.374855824682814" fill="#dcdcdc" fill-opacity="1"/><circle cx="404.7372055837118" cy="-5" r="5.46712802768166" fill="#dcdcdc" fill-opacity="1"/><circle cx="396.07695154586736" cy="10" r="5.513264129181083" fill="#dcdcdc" fill-opacity="1"/><circle cx="387.416697508023" cy="25" r="5.6055363321799305" fill="#dcdcdc" fill-opacity="1"/><circle cx="378.7564434701786" cy="40" r="5.697808535178778" fill="#dcdcdc" fill-opacity="1"/><circle cx="370.0961894323342" cy="55" r="5.7900807381776245" fill="#dcdcdc" fill-opacity="1"/><circle cx="361.43593539448983" cy="70" r="5.836216839677046" fill="#dcdcdc" fill-opacity="1"/><circle cx="352.77568135664546" cy="85" r="5.928489042675893" fill="#dcdcdc" fill-opacity="1"/><circle cx="344.11542731880104" cy="100" r="6.02076124567474" fill="#dcdcdc" fill-opacity="1"/><circle cx="352.77568135664546" cy="115" r="5.928489042675893" fill="#dcdcdc" fill-opacity="1"/><circle cx="361.43593539448983" cy="130" r="5.836216839677046" fill="#dcdcdc" fill-opacity="1"/><circle cx="370.0961894323342" cy="145" r="5.7900807381776245" fill="#dcdcdc" fill-opacity="1"/><circle cx="378.7564434701786" cy="160" r="5.697808535178778" fill="#dcdcdc" fill-opacity="1"/><circle cx="387.416697508023" cy="175" r="5.6055363321799305" fill="#dcdcdc" fill-opacity="1"/><circle cx="396.07695154586736" cy="190" r="5.513264129181083" fill="#dcdcdc" fill-opacity="1"/><circle cx="404.7372055837118" cy="205" r="5.46712802768166" fill="#dcdcdc" fill-opacity="1"/><circle cx="413.39745962155615" cy="220" r="5.374855824682814" fill="#dcdcdc" fill-opacity="1"/><circle cx="603.9230484541326" cy="220" r="3.5755478662053064" fill="#dcdcdc" fill-opacity="1"/><circle cx="612.5833024919771" cy="205" r="3.529411764705883" fill="#dcdcdc" fill-opacity="1"/><circle cx="621.2435565298214" cy="190" r="3.4371395617070344" fill="#dcdcdc" fill-opacity="1"/><circle cx="629.9038105676658" cy="175" r="3.34486735870819" fill="#dcdcdc" fill-opacity="1"/><circle cx="638.5640646055101" cy="160" r="3.2525951557093427" fill="#dcdcdc" fill-opacity="1"/><circle cx="647.2243186433545" cy="145" r="3.160322952710496" fill="#dcdcdc" fill-opacity="1"/><circle cx="655.884572681199" cy="130" r="3.1141868512110737" fill="#dcdcdc" fill-opacity="1"/><circle cx="664.5448267190434" cy="115" r="3.021914648212225" fill="#dcdcdc" fill-opacity="1"/><circle cx="673.2050807568877" cy="100" r="2.9296424452133785" fill="#dcdcdc" fill-opacity="1"/><circle cx="664.5448267190434" cy="85" r="3.021914648212225" fill="#dcdcdc" fill-opacity="1"/><circle cx="655.884572681199" cy="70" r="3.1141868512110737" fill="#dcdcdc" fill-opacity="1"/><circle cx="647.2243186433545" cy="55" r="3.160322952710496" fill="#dcdcdc" fill-opacity="1"/><circle cx="638.5640646055101" cy="40" r="3.2525951557093427" fill="#dcdcdc" fill-opacity="1"/><circle cx="629.9038105676658" cy="25" r="3.34486735870819" fill="#dcdcdc" fill-opacity="1"/><circle cx="621.2435565298214" cy="10" r="3.4371395617070344" fill="#dcdcdc" fill-opacity="1"/><circle cx="612.5833024919771" cy="-5" r="3.529411764705883" fill="#dcdcdc" fill-opacity="1"/><circle cx="603.9230484541326" cy="-20" r="3.5755478662053064" fill="#dcdcdc" fill-opacity="1"/><circle cx="396.07695154586736" cy="-20" r="5.513264129181083" fill="#dcdcdc" fill-opacity="1"/><circle cx="387.416697508023" cy="-5" r="5.6055363321799305" fill="#dcdcdc" fill-opacity="1"/><circle cx="378.7564434701786" cy="10" r="5.697808535178778" fill="#dcdcdc" fill-opacity="1"/><circle cx="370.0961894323342" cy="25" r="5.7900807381776245" fill="#dcdcdc" fill-opacity="1"/><circle cx="361.43593539448983" cy="40" r="5.836216839677046" fill="#dcdcdc" fill-opacity="1"/><circle cx="352.77568135664546" cy="55" r="5.928489042675893" fill="#dcdcdc" fill-opacity="1"/><circle cx="344.11542731880104" cy="70" r="6.02076124567474" fill="#dcdcdc" fill-opacity="1"/><circle cx="335.45517328095667" cy="85" r="6.113033448673587" fill="#dcdcdc" fill-opacity="1"/><circle cx="326.7949192431123" cy="100" r="6.159169550173011" fill="#dcdcdc" fill-opacity="1"/><circle cx="335.45517328095667" cy="115" r="6.113033448673587" fill="#dcdcdc" fill-opacity="1"/><circle cx="344.11542731880104" cy="130" r="6.02076124567474" fill="#dcdcdc" fill-opacity="1"/><circle cx="352.77568135664546" cy="145" r="5.928489042675893" fill="#dcdcdc" fill-opacity="1"/><circle cx="361.43593539448983" cy="160" r="5.836216839677046" fill="#dcdcdc" fill-opacity="1"/><circle cx="370.0961894323342" cy="175" r="5.7900807381776245" fill="#dcdcdc" fill-opacity="1"/><circle cx="378.7564434701786" cy="190" r="5.697808535178778" fill="#dcdcdc" fill-opacity="1"/><circle cx="387.416697508023" cy="205" r="5.6055363321799305" fill="#dcdcdc" fill-opacity="1"/><circle cx="396.07695154586736" cy="220" r="5.513264129181083" fill="#dcdcdc" fill-opacity="1"/><circle cx="621.2435565298214" cy="220" r="3.4371395617070344" fill="#dcdcdc" fill-opacity="1"/><circle cx="629.9038105676658" cy="205" r="3.34486735870819" fill="#dcdcdc" fill-opacity="1"/><circle cx="638.5640646055101" cy="190" r="3.2525951557093427" fill="#dcdcdc" fill-opacity="1"/><circle cx="647.2243186433545" cy="175" r="3.160322952710496" fill="#dcdcdc" fill-opacity="1"/><circle cx="655.884572681199" cy="160" r="3.1141868512110737" fill="#dcdcdc" fill-opacity="1"/><circle cx="664.5448267190434" cy="145" r="3.021914648212225" fill="#dcdcdc" fill-opacity="1"/><circle cx="673.2050807568877" cy="130" r="2.9296424452133785" fill="#dcdcdc" fill-opacity="1"/><circle cx="681.8653347947321" cy="115" r="2.883506343713955" fill="#dcdcdc" fill-opacity="1"/><circle cx="690.5255888325764" cy="100" r="2.791234140715111" fill="#dcdcdc" fill-opacity="1"/><circle cx="681.8653347947321" cy="85" r="2.883506343713955" fill="#dcdcdc" fill-opacity="1"/><circle cx="673.2050807568877" cy="70" r="2.9296424452133785" fill="#dcdcdc" fill-opacity="1"/><circle cx="664.5448267190434" cy="55" r="3.021914648212225" fill="#dcdcdc" fill-opacity="1"/><circle cx="655.884572681199" cy="40" r="3.1141868512110737" fill="#dcdcdc" fill-opacity="1"/><circle cx="647.2243186433545" cy="25" r="3.160322952710496" fill="#dcdcdc" fill-opacity="1"/><circle cx="638.5640646055101" cy="10" r="3.2525951557093427" fill="#dcdcdc" fill-opacity="1"/><circle cx="629.9038105676658" cy="-5" r="3.34486735870819" fill="#dcdcdc" fill-opacity="1"/><circle cx="621.2435565298214" cy="-20" r="3.4371395617070344" fill="#dcdcdc" fill-opacity="1"/><circle cx="378.7564434701786" cy="-20" r="5.697808535178778" fill="#dcdcdc" fill-opacity="1"/><circle cx="370.0961894323342" cy="-5" r="5.7900807381776245" fill="#dcdcdc" fill-opacity="1"/><circle cx="361.43593539448983" cy="10" r="5.836216839677046" fill="#dcdcdc" fill-opacity="1"/><circle cx="352.77568135664546" cy="25" r="5.928489042675893" fill="#dcdcdc" fill-opacity="1"/><circle cx="344.11542731880104" cy="40" r="6.02076124567474" fill="#dcdcdc" fill-opacity="1"/><circle cx="335.45517328095667" cy="55" r="6.113033448673587" fill="#dcdcdc" fill-opacity="1"/><circle cx="326.7949192431123" cy="70" r="6.159169550173011" fill="#dcdcdc" fill-opacity="1"/><circle cx="318.1346652052679" cy="85" r="6.251441753171855" fill="#dcdcdc" fill-opacity="1"/><circle cx="309.4744111674235" cy="100" r="6.343713956170703" fill="#dcdcdc" fill-opacity="1"/><circle cx="318.1346652052679" cy="115" r="6.251441753171855" fill="#dcdcdc" fill-opacity="1"/><circle cx="326.7949192431123" cy="130" r="6.159169550173011" fill="#dcdcdc" fill-opacity="1"/><circle cx="335.45517328095667" cy="145" r="6.113033448673587" fill="#dcdcdc" fill-opacity="1"/><circle cx="344.11542731880104" cy="160" r="6.02076124567474" fill="#dcdcdc" fill-opacity="1"/><circle cx="352.77568135664546" cy="175" r="5.928489042675893" fill="#dcdcdc" fill-opacity="1"/><circle cx="361.43593539448983" cy="190" r="5.836216839677046" fill="#dcdcdc" fill-opacity="1"/><circle cx="370.0961894323342" cy="205" r="5.7900807381776245" fill="#dcdcdc" fill-opacity="1"/><circle cx="378.7564434701786" cy="220" r="5.697808535178778" fill="#dcdcdc" fill-opacity="1"/><circle cx="638.5640646055101" cy="220" r="3.2525951557093427" fill="#dcdcdc" fill-opacity="1"/><circle cx="647.2243186433545" cy="205" r="3.160322952710496" fill="#dcdcdc" fill-opacity="1"/><circle cx="655.884572681199" cy="190" r="3.1141868512110737" fill="#dcdcdc" fill-opacity="1"/><circle cx="664.5448267190434" cy="175" r="3.021914648212225" fill="#dcdcdc" fill-opacity="1"/><circle cx="673.2050807568877" cy="160" r="2.9296424452133785" fill="#dcdcdc" fill-opacity="1"/><circle cx="681.8653347947321" cy="145" r="2.883506343713955" fill="#dcdcdc" fill-opacity="1"/><circle cx="690.5255888325764" cy="130" r="2.791234140715111" fill="#dcdcdc" fill-opacity="1"/><circle cx="699.1858428704209" cy="115" r="2.698961937716262" fill="#dcdcdc" fill-opacity="1"/><circle cx="707.8460969082653" cy="100" r="2.6066897347174156" fill="#dcdcdc" fill-opacity="1"/><circle cx="699.1858428704209" cy="85" r="2.698961937716262" fill="#dcdcdc" fill-opacity="1"/><circle cx="690.5255888325764" cy="70" r="2.791234140715111" fill="#dcdcdc" fill-opacity="1"/><circle cx="681.8653347947321" cy="55" r="2.883506343713955" fill="#dcdcdc" fill-opacity="1"/><circle cx="673.2050807568877" cy="40" r="2.9296424452133785" fill="#dcdcdc" fill-opacity="1"/><circle cx="664.5448267190434" cy="25" r="3.021914648212225" fill="#dcdcdc" fill-opacity="1"/><circle cx="655.884572681199" cy="10" r="3.1141868512110737" fill="#dcdcdc" fill-opacity="1"/><circle cx="647.2243186433545" cy="-5" r="3.160322952710496" fill="#dcdcdc" fill-opacity="1"/><circle cx="638.5640646055101" cy="-20" r="3.2525951557093427" fill="#dcdcdc" fill-opacity="1"/><circle cx="361.43593539448983" cy="-20" r="5.836216839677046" fill="#dcdcdc" fill-opacity="1"/><circle cx="352.77568135664546" cy="-5" r="5.928489042675893" fill="#dcdcdc" fill-opacity="1"/><circle cx="344.11542731880104" cy="10" r="6.02076124567474" fill="#dcdcdc" fill-opacity="1"/><circle cx="335.45517328095667" cy="25" r="6.113033448673587" fill="#dcdcdc" fill-opacity="1"/><circle cx="326.7949192431123" cy="40" r="6.159169550173011" fill="#dcdcdc" fill-opacity="1"/><circle cx="318.1346652052679" cy="55" r="6.251441753171855" fill="#dcdcdc" fill-opacity="1"/><circle cx="309.4744111674235" cy="70" r="6.343713956170703" fill="#dcdcdc" fill-opacity="1"/><circle cx="300.81415712957914" cy="85" r="6.43598615916955" fill="#dcdcdc" fill-opacity="1"/><circle cx="292.1539030917347" cy="100" r="6.482122260668973" fill="#dcdcdc" fill-opacity="1"/><circle cx="300.81415712957914" cy="115" r="6.43598615916955" fill="#dcdcdc" fill-opacity="1"/><circle cx="309.4744111674235" cy="130" r="6.343713956170703" fill="#dcdcdc" fill-opacity="1"/><circle cx="318.1346652052679" cy="145" r="6.251441753171855" fill="#dcdcdc" fill-opacity="1"/><circle cx="326.7949192431123" cy="160" r="6.159169550173011" fill="#dcdcdc" fill-opacity="1"/><circle cx="335.45517328095667" cy="175" r="6.113033448673587" fill="#dcdcdc" fill-opacity="1"/><circle cx="344.11542731880104" cy="190" r="6.02076124567474" fill="#dcdcdc" fill-opacity="1"/><circle cx="352.77568135664546" cy="205" r="5.928489042675893" fill="#dcdcdc" fill-opacity="1"/><circle cx="361.43593539448983" cy="220" r="5.836216839677046" fill="#dcdcdc" fill-opacity="1"/><circle cx="655.884572681199" cy="220" r="3.1141868512110737" fill="#dcdcdc" fill-opacity="1"/><circle cx="664.5448267190434" cy="205" r="3.021914648212225" fill="#dcdcdc" fill-opacity="1"/><circle cx="673.2050807568877" cy="190" r="2.9296424452133785" fill="#dcdcdc" fill-opacity="1"/><circle cx="681.8653347947321" cy="175" r="2.883506343713955" fill="#dcdcdc" fill-opacity="1"/><circle cx="690.5255888325764" cy="160" r="2.791234140715111" fill="#dcdcdc" fill-opacity="1"/><circle cx="699.1858428704209" cy="145" r="2.698961937716262" fill="#dcdcdc" fill-opacity="1"/><circle cx="707.8460969082653" cy="130" r="2.6066897347174156" fill="#dcdcdc" fill-opacity="1"/><circle cx="716.5063509461097" cy="115" r="2.5605536332179923" fill="#dcdcdc" fill-opacity="1"/><circle cx="725.166604983954" cy="100" r="2.468281430219148" fill="#dcdcdc" fill-opacity="1"/><circle cx="716.5063509461097" cy="85" r="2.5605536332179923" fill="#dcdcdc" fill-opacity="1"/><circle cx="707.8460969082653" cy="70" r="2.6066897347174156" fill="#dcdcdc" fill-opacity="1"/><circle cx="699.1858428704209" cy="55" r="2.698961937716262" fill="#dcdcdc" fill-opacity="1"/><circle cx="690.5255888325764" cy="40" r="2.791234140715111" fill="#dcdcdc" fill-opacity="1"/><circle cx="681.8653347947321" cy="25" r="2.883506343713955" fill="#dcdcdc" fill-opacity="1"/><circle cx="673.2050807568877" cy="10" r="2.9296424452133785" fill="#dcdcdc" fill-opacity="1"/><circle cx="664.5448267190434" cy="-5" r="3.021914648212225" fill="#dcdcdc" fill-opacity="1"/><circle cx="655.884572681199" cy="-20" r="3.1141868512110737" fill="#dcdcdc" fill-opacity="1"/><circle cx="344.11542731880104" cy="-20" r="6.02076124567474" fill="#dcdcdc" fill-opacity="1"/><circle cx="335.45517328095667" cy="-5" r="6.113033448673587" fill="#dcdcdc" fill-opacity="1"/><circle cx="326.7949192431123" cy="10" r="6.159169550173011" fill="#dcdcdc" fill-opacity="1"/><circle cx="318.1346652052679" cy="25" r="6.251441753171855" fill="#dcdcdc" fill-opacity="1"/><circle cx="309.4744111674235" cy="40" r="6.343713956170703" fill="#dcdcdc" fill-opacity="1"/><circle cx="300.81415712957914" cy="55" r="6.43598615916955" fill="#dcdcdc" fill-opacity="1"/><circle cx="292.1539030917347" cy="70" r="6.482122260668973" fill="#dcdcdc" fill-opacity="1"/><circle cx="283.49364905389035" cy="85" r="6.5743944636678195" fill="#dcdcdc" fill-opacity="1"/><circle cx="274.833395016046" cy="100" r="6.666666666666666" fill="#dcdcdc" fill-opacity="1"/><circle cx="283.49364905389035" cy="115" r="6.5743944636678195" fill="#dcdcdc" fill-opacity="1"/><circle cx="292.1539030917347" cy="130" r="6.482122260668973" fill="#dcdcdc" fill-opacity="1"/><circle cx="300.81415712957914" cy="145" r="6.43598615916955" fill="#dcdcdc" fill-opacity="1"/><circle cx="309.4744111674235" cy="160" r="6.343713956170703" fill="#dcdcdc" fill-opacity="1"/><circle cx="318.1346652052679" cy="175" r="6.251441753171855" fill="#dcdcdc" fill-opacity="1"/><circle cx="326.7949192431123" cy="190" r="6.159169550173011" fill="#dcdcdc" fill-opacity="1"/><circle cx="335.45517328095667" cy="205" r="6.113033448673587" fill="#dcdcdc" fill-opacity="1"/><circle cx="344.11542731880104" cy="220" r="6.02076124567474" fill="#dcdcdc" fill-opacity="1"/><circle cx="673.2050807568877" cy="220" r="2.9296424452133785" fill="#dcdcdc" fill-opacity="1"/><circle cx="681.8653347947321" cy="205" r="2.883506343713955" fill="#dcdcdc" fill-opacity="1"/><circle cx="690.5255888325764" cy="190" r="2.791234140715111" fill="#dcdcdc" fill-opacity="1"/><circle cx="699.1858428704209" cy="175" r="2.698961937716262" fill="#dcdcdc" fill-opacity="1"/><circle cx="707.8460969082653" cy="160" r="2.6066897347174156" fill="#dcdcdc" fill-opacity="1"/><circle cx="716.5063509461097" cy="145" r="2.5605536332179923" fill="#dcdcdc" fill-opacity="1"/><circle cx="725.166604983954" cy="130" r="2.468281430219148" fill="#dcdcdc" fill-opacity="1"/><circle cx="733.8268590217984" cy="115" r="2.3760092272202993" fill="#dcdcdc" fill-opacity="1"/><circle cx="742.4871130596428" cy="100" r="2.2837370242214527" fill="#dcdcdc" fill-opacity="1"/><circle cx="733.8268590217984" cy="85" r="2.3760092272202993" fill="#dcdcdc" fill-opacity="1"/><circle cx="725.166604983954" cy="70" r="2.468281430219148" fill="#dcdcdc" fill-opacity="1"/><circle cx="716.5063509461097" cy="55" r="2.5605536332179923" fill="#dcdcdc" fill-opacity="1"/><circle cx="707.8460969082653" cy="40" r="2.6066897347174156" fill="#dcdcdc" fill-opacity="1"/><circle cx="699.1858428704209" cy="25" r="2.698961937716262" fill="#dcdcdc" fill-opacity="1"/><circle cx="690.5255888325764" cy="10" r="2.791234140715111" fill="#dcdcdc" fill-opacity="1"/><circle cx="681.8653347947321" cy="-5" r="2.883506343713955" fill="#dcdcdc" fill-opacity="1"/><circle cx="673.2050807568877" cy="-20" r="2.9296424452133785" fill="#dcdcdc" fill-opacity="1"/><circle cx="326.7949192431123" cy="-20" r="6.159169550173011" fill="#dcdcdc" fill-opacity="1"/><circle cx="318.1346652052679" cy="-5" r="6.251441753171855" fill="#dcdcdc" fill-opacity="1"/><circle cx="309.4744111674235" cy="10" r="6.343713956170703" fill="#dcdcdc" fill-opacity="1"/><circle cx="300.81415712957914" cy="25" r="6.43598615916955" fill="#dcdcdc" fill-opacity="1"/><circle cx="292.1539030917347" cy="40" r="6.482122260668973" fill="#dcdcdc" fill-opacity="1"/><circle cx="283.49364905389035" cy="55" r="6.5743944636678195" fill="#dcdcdc" fill-opacity="1"/><circle cx="274.833395016046" cy="70" r="6.666666666666666" fill="#dcdcdc" fill-opacity="1"/><circle cx="266.17314097820156" cy="85" r="6.758938869665513" fill="#dcdcdc" fill-opacity="1"/><circle cx="257.5128869403572" cy="100" r="6.805074971164936" fill="#dcdcdc" fill-opacity="1"/><circle cx="266.17314097820156" cy="115" r="6.758938869665513" fill="#dcdcdc" fill-opacity="1"/><circle cx="274.833395016046" cy="130" r="6.666666666666666" fill="#dcdcdc" fill-opacity="1"/><circle cx="283.49364905389035" cy="145" r="6.5743944636678195" fill="#dcdcdc" fill-opacity="1"/><circle cx="292.1539030917347" cy="160" r="6.482122260668973" fill="#dcdcdc" fill-opacity="1"/><circle cx="300.81415712957914" cy="175" r="6.43598615916955" fill="#dcdcdc" fill-opacity="1"/><circle cx="309.4744111674235" cy="190" r="6.343713956170703" fill="#dcdcdc" fill-opacity="1"/><circle cx="318.1346652052679" cy="205" r="6.251441753171855" fill="#dcdcdc" fill-opacity="1"/><circle cx="326.7949192431123" cy="220" r="6.159169550173011" fill="#dcdcdc" fill-opacity="1"/><circle cx="690.5255888325764" cy="220" r="2.791234140715111" fill="#dcdcdc" fill-opacity="1"/><circle cx="699.1858428704209" cy="205" r="2.698961937716262" fill="#dcdcdc" fill-opacity="1"/><circle cx="707.8460969082653" cy="190" r="2.6066897347174156" fill="#dcdcdc" fill-opacity="1"/><circle cx="716.5063509461097" cy="175" r="2.5605536332179923" fill="#dcdcdc" fill-opacity="1"/><circle cx="725.166604983954" cy="160" r="2.468281430219148" fill="#dcdcdc" fill-opacity="1"/><circle cx="733.8268590217984" cy="145" r="2.3760092272202993" fill="#dcdcdc" fill-opacity="1"/><circle cx="742.4871130596428" cy="130" r="2.2837370242214527" fill="#dcdcdc" fill-opacity="1"/><circle cx="751.1473670974872" cy="115" r="2.191464821222607" fill="#dcdcdc" fill-opacity="1"/><circle cx="759.8076211353316" cy="100" r="2.1453287197231843" fill="#dcdcdc" fill-opacity="1"/><circle cx="751.1473670974872" cy="85" r="2.191464821222607" fill="#dcdcdc" fill-opacity="1"/><circle cx="742.4871130596428" cy="70" r="2.2837370242214527" fill="#dcdcdc" fill-opacity="1"/><circle cx="733.8268590217984" cy="55" r="2.3760092272202993" fill="#dcdcdc" fill-opacity="1"/><circle cx="725.166604983954" cy="40" r="2.468281430219148" fill="#dcdcdc" fill-opacity="1"/><circle cx="716.5063509461097" cy="25" r="2.5605536332179923" fill="#dcdcdc" fill-opacity="1"/><circle cx="707.8460969082653" cy="10" r="2.6066897347174156" fill="#dcdcdc" fill-opacity="1"/><circle cx="699.1858428704209" cy="-5" r="2.698961937716262" fill="#dcdcdc" fill-opacity="1"/><circle cx="690.5255888325764" cy="-20" r="2.791234140715111" fill="#dcdcdc" fill-opacity="1"/><circle cx="309.4744111674235" cy="-20" r="6.343713956170703" fill="#dcdcdc" fill-opacity="1"/><circle cx="300.81415712957914" cy="-5" r="6.43598615916955" fill="#dcdcdc" fill-opacity="1"/><circle cx="292.1539030917347" cy="10" r="6.482122260668973" fill="#dcdcdc" fill-opacity="1"/><circle cx="283.49364905389035" cy="25" r="6.5743944636678195" fill="#dcdcdc" fill-opacity="1"/><circle cx="274.833395016046" cy="40" r="6.666666666666666" fill="#dcdcdc" fill-opacity="1"/><circle cx="266.17314097820156" cy="55" r="6.758938869665513" fill="#dcdcdc" fill-opacity="1"/><circle cx="257.5128869403572" cy="70" r="6.805074971164936" fill="#dcdcdc" fill-opacity="1"/><circle cx="248.85263290251282" cy="85" r="6.897347174163783" fill="#dcdcdc" fill-opacity="1"/><circle cx="240.19237886466846" cy="100" r="6.989619377162629" fill="#dcdcdc" fill-opacity="1"/><circle cx="248.85263290251282" cy="115" r="6.897347174163783" fill="#dcdcdc" fill-opacity="1"/><circle cx="257.5128869403572" cy="130" r="6.805074971164936" fill="#dcdcdc" fill-opacity="1"/><circle cx="266.17314097820156" cy="145" r="6.758938869665513" fill="#dcdcdc" fill-opacity="1"/><circle cx="274.833395016046" cy="160" r="6.666666666666666" fill="#dcdcdc" fill-opacity="1"/><circle cx="283.49364905389035" cy="175" r="6.5743944636678195" fill="#dcdcdc" fill-opacity="1"/><circle cx="292.1539030917347" cy="190" r="6.482122260668973" fill="#dcdcdc" fill-opacity="1"/><circle cx="300.81415712957914" cy="205" r="6.43598615916955" fill="#dcdcdc" fill-opacity="1"/><circle cx="309.4744111674235" cy="220" r="6.343713956170703" fill="#dcdcdc" fill-opacity="1"/><circle cx="707.8460969082653" cy="220" r="2.6066897347174156" fill="#dcdcdc" fill-opacity="1"/><circle cx="716.5063509461097" cy="205" r="2.5605536332179923" fill="#dcdcdc" fill-opacity="1"/><circle cx="725.166604983954" cy="190" r="2.468281430219148" fill="#dcdcdc" fill-opacity="1"/><circle cx="733.8268590217984" cy="175" r="2.3760092272202993" fill="#dcdcdc" fill-opacity="1"/><circle cx="742.4871130596428" cy="160" r="2.2837370242214527" fill="#dcdcdc" fill-opacity="1"/><circle cx="751.1473670974872" cy="145" r="2.191464821222607" fill="#dcdcdc" fill-opacity="1"/><circle cx="759.8076211353316" cy="130" r="2.1453287197231843" fill="#dcdcdc" fill-opacity="1"/><circle cx="768.467875173176" cy="115" r="2.0530565167243364" fill="#dcdcdc" fill-opacity="1"/><circle cx="777.1281292110203" cy="100" r="1.96078431372549" fill="#dcdcdc" fill-opacity="1"/><circle cx="768.467875173176" cy="85" r="2.0530565167243364" fill="#dcdcdc" fill-opacity="1"/><circle cx="759.8076211353316" cy="70" r="2.1453287197231843" fill="#dcdcdc" fill-opacity="1"/><circle cx="751.1473670974872" cy="55" r="2.191464821222607" fill="#dcdcdc" fill-opacity="1"/><circle cx="742.4871130596428" cy="40" r="2.2837370242214527" fill="#dcdcdc" fill-opacity="1"/><circle cx="733.8268590217984" cy="25" r="2.3760092272202993" fill="#dcdcdc" fill-opacity="1"/><circle cx="725.166604983954" cy="10" r="2.468281430219148" fill="#dcdcdc" fill-opacity="1"/><circle cx="716.5063509461097" cy="-5" r="2.5605536332179923" fill="#dcdcdc" fill-opacity="1"/><circle cx="707.8460969082653" cy="-20" r="2.6066897347174156" fill="#dcdcdc" fill-opacity="1"/><circle cx="292.1539030917347" cy="-20" r="6.482122260668973" fill="#dcdcdc" fill-opacity="1"/><circle cx="283.49364905389035" cy="-5" r="6.5743944636678195" fill="#dcdcdc" fill-opacity="1"/><circle cx="274.833395016046" cy="10" r="6.666666666666666" fill="#dcdcdc" fill-opacity="1"/><circle cx="266.17314097820156" cy="25" r="6.758938869665513" fill="#dcdcdc" fill-opacity="1"/><circle cx="257.5128869403572" cy="40" r="6.805074971164936" fill="#dcdcdc" fill-opacity="1"/><circle cx="248.85263290251282" cy="55" r="6.897347174163783" fill="#dcdcdc" fill-opacity="1"/><circle cx="240.19237886466846" cy="70" r="6.989619377162629" fill="#dcdcdc" fill-opacity="1"/><circle cx="231.53212482682403" cy="85" r="7.081891580161476" fill="#dcdcdc" fill-opacity="1"/><circle cx="222.87187078897966" cy="100" r="7.174163783160323" fill="#dcdcdc" fill-opacity="1"/><circle cx="231.53212482682403" cy="115" r="7.081891580161476" fill="#dcdcdc" fill-opacity="1"/><circle cx="240.19237886466846" cy="130" r="6.989619377162629" fill="#dcdcdc" fill-opacity="1"/><circle cx="248.85263290251282" cy="145" r="6.897347174163783" fill="#dcdcdc" fill-opacity="1"/><circle cx="257.5128869403572" cy="160" r="6.805074971164936" fill="#dcdcdc" fill-opacity="1"/><circle cx="266.17314097820156" cy="175" r="6.758938869665513" fill="#dcdcdc" fill-opacity="1"/><circle cx="274.833395016046" cy="190" r="6.666666666666666" fill="#dcdcdc" fill-opacity="1"/><circle cx="283.49364905389035" cy="205" r="6.5743944636678195" fill="#dcdcdc" fill-opacity="1"/><circle cx="292.1539030917347" cy="220" r="6.482122260668973" fill="#dcdcdc" fill-opacity="1"/><circle cx="725.166604983954" cy="220" r="2.468281430219148" fill="#dcdcdc" fill-opacity="1"/><circle cx="733.8268590217984" cy="205" r="2.3760092272202993" fill="#dcdcdc" fill-opacity="1"/><circle cx="742.4871130596428" cy="190" r="2.2837370242214527" fill="#dcdcdc" fill-opacity="1"/><circle cx="751.1473670974872" cy="175" r="2.191464821222607" fill="#dcdcdc" fill-opacity="1"/><circle cx="759.8076211353316" cy="160" r="2.1453287197231843" fill="#dcdcdc" fill-opacity="1"/><circle cx="768.467875173176" cy="145" r="2.0530565167243364" fill="#dcdcdc" fill-opacity="1"/><circle cx="777.1281292110203" cy="130" r="1.96078431372549" fill="#dcdcdc" fill-opacity="1"/><circle cx="785.7883832488646" cy="115" r="1.9146482122260666" fill="#dcdcdc" fill-opacity="1"/><circle cx="794.4486372867091" cy="100" r="1.8223760092272212" fill="#dcdcdc" fill-opacity="1"/><circle cx="785.7883832488646" cy="85" r="1.9146482122260666" fill="#dcdcdc" fill-opacity="1"/><circle cx="777.1281292110203" cy="70" r="1.96078431372549" fill="#dcdcdc" fill-opacity="1"/><circle cx="768.467875173176" cy="55" r="2.0530565167243364" fill="#dcdcdc" fill-opacity="1"/><circle cx="759.8076211353316" cy="40" r="2.1453287197231843" fill="#dcdcdc" fill-opacity="1"/><circle cx="751.1473670974872" cy="25" r="2.191464821222607" fill="#dcdcdc" fill-opacity="1"/><circle cx="742.4871130596428" cy="10" r="2.2837370242214527" fill="#dcdcdc" fill-opacity="1"/><circle cx="733.8268590217984" cy="-5" r="2.3760092272202993" fill="#dcdcdc" fill-opacity="1"/><circle cx="725.166604983954" cy="-20" r="2.468281430219148" fill="#dcdcdc" fill-opacity="1"/><circle cx="274.833395016046" cy="-20" r="6.666666666666666" fill="#dcdcdc" fill-opacity="1"/><circle cx="266.17314097820156" cy="-5" r="6.758938869665513" fill="#dcdcdc" fill-opacity="1"/><circle cx="257.5128869403572" cy="10" r="6.805074971164936" fill="#dcdcdc" fill-opacity="1"/><circle cx="248.85263290251282" cy="25" r="6.897347174163783" fill="#dcdcdc" fill-opacity="1"/><circle cx="240.19237886466846" cy="40" r="6.989619377162629" fill="#dcdcdc" fill-opacity="1"/><circle cx="231.53212482682403" cy="55" r="7.081891580161476" fill="#dcdcdc" fill-opacity="1"/><circle cx="222.87187078897966" cy="70" r="7.174163783160323" fill="#dcdcdc" fill-opacity="1"/><circle cx="214.2116167511353" cy="85" r="7.220299884659745" fill="#dcdcdc" fill-opacity="1"/><circle cx="205.55136271329087" cy="100" r="7.312572087658592" fill="#dcdcdc" fill-opacity="1"/><circle cx="214.2116167511353" cy="115" r="7.220299884659745" fill="#dcdcdc" fill-opacity="1"/><circle cx="222.87187078897966" cy="130" r="7.174163783160323" fill="#dcdcdc" fill-opacity="1"/><circle cx="231.53212482682403" cy="145" r="7.081891580161476" fill="#dcdcdc" fill-opacity="1"/><circle cx="240.19237886466846" cy="160" r="6.989619377162629" fill="#dcdcdc" fill-opacity="1"/><circle cx="248.85263290251282" cy="175" r="6.897347174163783" fill="#dcdcdc" fill-opacity="1"/><circle cx="257.5128869403572" cy="190" r="6.805074971164936" fill="#dcdcdc" fill-opacity="1"/><circle cx="266.17314097820156" cy="205" r="6.758938869665513" fill="#dcdcdc" fill-opacity="1"/><circle cx="274.833395016046" cy="220" r="6.666666666666666" fill="#dcdcdc" fill-opacity="1"/><circle cx="742.4871130596428" cy="220" r="2.2837370242214527" fill="#dcdcdc" fill-opacity="1"/><circle cx="751.1473670974872" cy="205" r="2.191464821222607" fill="#dcdcdc" fill-opacity="1"/><circle cx="759.8076211353316" cy="190" r="2.1453287197231843" fill="#dcdcdc" fill-opacity="1"/><circle cx="768.467875173176" cy="175" r="2.0530565167243364" fill="#dcdcdc" fill-opacity="1"/><circle cx="777.1281292110203" cy="160" r="1.96078431372549" fill="#dcdcdc" fill-opacity="1"/><circle cx="785.7883832488646" cy="145" r="1.9146482122260666" fill="#dcdcdc" fill-opacity="1"/><circle cx="794.4486372867091" cy="130" r="1.8223760092272212" fill="#dcdcdc" fill-opacity="1"/><circle cx="803.1088913245535" cy="115" r="1.7301038062283736" fill="#dcdcdc" fill-opacity="1"/><circle cx="811.7691453623979" cy="100" r="1.637831603229527" fill="#dcdcdc" fill-opacity="1"/><circle cx="803.1088913245535" cy="85" r="1.7301038062283736" fill="#dcdcdc" fill-opacity="1"/><circle cx="794.4486372867091" cy="70" r="1.8223760092272212" fill="#dcdcdc" fill-opacity="1"/><circle cx="785.7883832488646" cy="55" r="1.9146482122260666" fill="#dcdcdc" fill-opacity="1"/><circle cx="777.1281292110203" cy="40" r="1.96078431372549" fill="#dcdcdc" fill-opacity="1"/><circle cx="768.467875173176" cy="25" r="2.0530565167243364" fill="#dcdcdc" fill-opacity="1"/><circle cx="759.8076211353316" cy="10" r="2.1453287197231843" fill="#dcdcdc" fill-opacity="1"/><circle cx="751.1473670974872" cy="-5" r="2.191464821222607" fill="#dcdcdc" fill-opacity="1"/><circle cx="742.4871130596428" cy="-20" r="2.2837370242214527" fill="#dcdcdc" fill-opacity="1"/><circle cx="257.5128869403572" cy="-20" r="6.805074971164936" fill="#dcdcdc" fill-opacity="1"/><circle cx="248.85263290251282" cy="-5" r="6.897347174163783" fill="#dcdcdc" fill-opacity="1"/><circle cx="240.19237886466846" cy="10" r="6.989619377162629" fill="#dcdcdc" fill-opacity="1"/><circle cx="231.53212482682403" cy="25" r="7.081891580161476" fill="#dcdcdc" fill-opacity="1"/><circle cx="222.87187078897966" cy="40" r="7.174163783160323" fill="#dcdcdc" fill-opacity="1"/><circle cx="214.2116167511353" cy="55" r="7.220299884659745" fill="#dcdcdc" fill-opacity="1"/><circle cx="205.55136271329087" cy="70" r="7.312572087658592" fill="#dcdcdc" fill-opacity="1"/><circle cx="196.8911086754465" cy="85" r="7.404844290657438" fill="#dcdcdc" fill-opacity="1"/><circle cx="188.23085463760214" cy="100" r="7.450980392156862" fill="#dcdcdc" fill-opacity="1"/><circle cx="196.8911086754465" cy="115" r="7.404844290657438" fill="#dcdcdc" fill-opacity="1"/><circle cx="205.55136271329087" cy="130" r="7.312572087658592" fill="#dcdcdc" fill-opacity="1"/><circle cx="214.2116167511353" cy="145" r="7.220299884659745" fill="#dcdcdc" fill-opacity="1"/><circle cx="222.87187078897966" cy="160" r="7.174163783160323" fill="#dcdcdc" fill-opacity="1"/><circle cx="231.53212482682403" cy="175" r="7.081891580161476" fill="#dcdcdc" fill-opacity="1"/><circle cx="240.19237886466846" cy="190" r="6.989619377162629" fill="#dcdcdc" fill-opacity="1"/><circle cx="248.85263290251282" cy="205" r="6.897347174163783" fill="#dcdcdc" fill-opacity="1"/><circle cx="257.5128869403572" cy="220" r="6.805074971164936" fill="#dcdcdc" fill-opacity="1"/><circle cx="759.8076211353316" cy="220" r="2.1453287197231843" fill="#dcdcdc" fill-opacity="1"/><circle cx="768.467875173176" cy="205" r="2.0530565167243364" fill="#dcdcdc" fill-opacity="1"/><circle cx="777.1281292110203" cy="190" r="1.96078431372549" fill="#dcdcdc" fill-opacity="1"/><circle cx="785.7883832488646" cy="175" r="1.9146482122260666" fill="#dcdcdc" fill-opacity="1"/><circle cx="794.4486372867091" cy="160" r="1.8223760092272212" fill="#dcdcdc" fill-opacity="1"/><circle cx="803.1088913245535" cy="145" r="1.7301038062283736" fill="#dcdcdc" fill-opacity="1"/><circle cx="811.7691453623979" cy="130" r="1.637831603229527" fill="#dcdcdc" fill-opacity="1"/><circle cx="820.4293994002423" cy="115" r="1.5455594002306805" fill="#dcdcdc" fill-opacity="1"/><circle cx="829.0896534380867" cy="100" r="1.4994232987312572" fill="#dcdcdc" fill-opacity="1"/><circle cx="820.4293994002423" cy="85" r="1.5455594002306805" fill="#dcdcdc" fill-opacity="1"/><circle cx="811.7691453623979" cy="70" r="1.637831603229527" fill="#dcdcdc" fill-opacity="1"/><circle cx="803.1088913245535" cy="55" r="1.7301038062283736" fill="#dcdcdc" fill-opacity="1"/><circle cx="794.4486372867091" cy="40" r="1.8223760092272212" fill="#dcdcdc" fill-opacity="1"/><circle cx="785.7883832488646" cy="25" r="1.9146482122260666" fill="#dcdcdc" fill-opacity="1"/><circle cx="777.1281292110203" cy="10" r="1.96078431372549" fill="#dcdcdc" fill-opacity="1"/><circle cx="768.467875173176" cy="-5" r="2.0530565167243364" fill="#dcdcdc" fill-opacity="1"/><circle cx="759.8076211353316" cy="-20" r="2.1453287197231843" fill="#dcdcdc" fill-opacity="1"/><circle cx="240.19237886466846" cy="-20" r="6.989619377162629" fill="#dcdcdc" fill-opacity="1"/><circle cx="231.53212482682403" cy="-5" r="7.081891580161476" fill="#dcdcdc" fill-opacity="1"/><circle cx="222.87187078897966" cy="10" r="7.174163783160323" fill="#dcdcdc" fill-opacity="1"/><circle cx="214.2116167511353" cy="25" r="7.220299884659745" fill="#dcdcdc" fill-opacity="1"/><circle cx="205.55136271329087" cy="40" r="7.312572087658592" fill="#dcdcdc" fill-opacity="1"/><circle cx="196.8911086754465" cy="55" r="7.404844290657438" fill="#dcdcdc" fill-opacity="1"/><circle cx="188.23085463760214" cy="70" r="7.450980392156862" fill="#dcdcdc" fill-opacity="1"/><circle cx="179.5706005997577" cy="85" r="7.5432525951557095" fill="#dcdcdc" fill-opacity="1"/><circle cx="170.91034656191334" cy="100" r="7.635524798154556" fill="#dcdcdc" fill-opacity="1"/><circle cx="179.5706005997577" cy="115" r="7.5432525951557095" fill="#dcdcdc" fill-opacity="1"/><circle cx="188.23085463760214" cy="130" r="7.450980392156862" fill="#dcdcdc" fill-opacity="1"/><circle cx="196.8911086754465" cy="145" r="7.404844290657438" fill="#dcdcdc" fill-opacity="1"/><circle cx="205.55136271329087" cy="160" r="7.312572087658592" fill="#dcdcdc" fill-opacity="1"/><circle cx="214.2116167511353" cy="175" r="7.220299884659745" fill="#dcdcdc" fill-opacity="1"/><circle cx="222.87187078897966" cy="190" r="7.174163783160323" fill="#dcdcdc" fill-opacity="1"/><circle cx="231.53212482682403" cy="205" r="7.081891580161476" fill="#dcdcdc" fill-opacity="1"/><circle cx="240.19237886466846" cy="220" r="6.989619377162629" fill="#dcdcdc" fill-opacity="1"/><circle cx="777.1281292110203" cy="220" r="1.96078431372549" fill="#dcdcdc" fill-opacity="1"/><circle cx="785.7883832488646" cy="205" r="1.9146482122260666" fill="#dcdcdc" fill-opacity="1"/><circle cx="794.4486372867091" cy="190" r="1.8223760092272212" fill="#dcdcdc" fill-opacity="1"/><circle cx="803.1088913245535" cy="175" r="1.7301038062283736" fill="#dcdcdc" fill-opacity="1"/><circle cx="811.7691453623979" cy="160" r="1.637831603229527" fill="#dcdcdc" fill-opacity="1"/><circle cx="820.4293994002423" cy="145" r="1.5455594002306805" fill="#dcdcdc" fill-opacity="1"/><circle cx="829.0896534380867" cy="130" r="1.4994232987312572" fill="#dcdcdc" fill-opacity="1"/><circle cx="837.749907475931" cy="115" r="1.4071510957324107" fill="#dcdcdc" fill-opacity="1"/><circle cx="846.4101615137754" cy="100" r="1.3148788927335642" fill="#dcdcdc" fill-opacity="1"/><circle cx="837.749907475931" cy="85" r="1.4071510957324107" fill="#dcdcdc" fill-opacity="1"/><circle cx="829.0896534380867" cy="70" r="1.4994232987312572" fill="#dcdcdc" fill-opacity="1"/><circle cx="820.4293994002423" cy="55" r="1.5455594002306805" fill="#dcdcdc" fill-opacity="1"/><circle cx="811.7691453623979" cy="40" r="1.637831603229527" fill="#dcdcdc" fill-opacity="1"/><circle cx="803.1088913245535" cy="25" r="1.7301038062283736" fill="#dcdcdc" fill-opacity="1"/><circle cx="794.4486372867091" cy="10" r="1.8223760092272212" fill="#dcdcdc" fill-opacity="1"/><circle cx="785.7883832488646" cy="-5" r="1.9146482122260666" fill="#dcdcdc" fill-opacity="1"/><circle cx="777.1281292110203" cy="-20" r="1.96078431372549" fill="#dcdcdc" fill-opacity="1"/><circle cx="222.87187078897966" cy="-20" r="7.174163783160323" fill="#dcdcdc" fill-opacity="1"/><circle cx="214.2116167511353" cy="-5" r="7.220299884659745" fill="#dcdcdc" fill-opacity="1"/><circle cx="205.55136271329087" cy="10" r="7.312572087658592" fill="#dcdcdc" fill-opacity="1"/><circle cx="196.8911086754465" cy="25" r="7.404844290657438" fill="#dcdcdc" fill-opacity="1"/><circle cx="188.23085463760214" cy="40" r="7.450980392156862" fill="#dcdcdc" fill-opacity="1"/><circle cx="179.5706005997577" cy="55" r="7.5432525951557095" fill="#dcdcdc" fill-opacity="1"/><circle cx="170.91034656191334" cy="70" r="7.635524798154556" fill="#dcdcdc" fill-opacity="1"/><circle cx="162.25009252406898" cy="85" r="7.727797001153402" fill="#dcdcdc" fill-opacity="1"/><circle cx="153.5898384862246" cy="100" r="7.7739331026528244" fill="#dcdcdc" fill-opacity="1"/><circle cx="162.25009252406898" cy="115" r="7.727797001153402" fill="#dcdcdc" fill-opacity="1"/><circle cx="170.91034656191334" cy="130" r="7.635524798154556" fill="#dcdcdc" fill-opacity="1"/><circle cx="179.5706005997577" cy="145" r="7.5432525951557095" fill="#dcdcdc" fill-opacity="1"/><circle cx="188.23085463760214" cy="160" r="7.450980392156862" fill="#dcdcdc" fill-opacity="1"/><circle cx="196.8911086754465" cy="175" r="7.404844290657438" fill="#dcdcdc" fill-opacity="1"/><circle cx="205.55136271329087" cy="190" r="7.312572087658592" fill="#dcdcdc" fill-opacity="1"/><circle cx="214.2116167511353" cy="205" r="7.220299884659745" fill="#dcdcdc" fill-opacity="1"/><circle cx="222.87187078897966" cy="220" r="7.174163783160323" fill="#dcdcdc" fill-opacity="1"/><circle cx="794.4486372867091" cy="220" r="1.8223760092272212" fill="#dcdcdc" fill-opacity="1"/><circle cx="803.1088913245535" cy="205" r="1.7301038062283736" fill="#dcdcdc" fill-opacity="1"/><circle cx="811.7691453623979" cy="190" r="1.637831603229527" fill="#dcdcdc" fill-opacity="1"/><circle cx="820.4293994002423" cy="175" r="1.5455594002306805" fill="#dcdcdc" fill-opacity="1"/><circle cx="829.0896534380867" cy="160" r="1.4994232987312572" fill="#dcdcdc" fill-opacity="1"/><circle cx="837.749907475931" cy="145" r="1.4071510957324107" fill="#dcdcdc" fill-opacity="1"/><circle cx="846.4101615137754" cy="130" r="1.3148788927335642" fill="#dcdcdc" fill-opacity="1"/><circle cx="855.0704155516198" cy="115" r="1.2226066897347188" fill="#dcdcdc" fill-opacity="1"/><circle cx="863.7306695894642" cy="100" r="1.1764705882352955" fill="#dcdcdc" fill-opacity="1"/><circle cx="855.0704155516198" cy="85" r="1.2226066897347188" fill="#dcdcdc" fill-opacity="1"/><circle cx="846.4101615137754" cy="70" r="1.3148788927335642" fill="#dcdcdc" fill-opacity="1"/><circle cx="837.749907475931" cy="55" r="1.4071510957324107" fill="#dcdcdc" fill-opacity="1"/><circle cx="829.0896534380867" cy="40" r="1.4994232987312572" fill="#dcdcdc" fill-opacity="1"/><circle cx="820.4293994002423" cy="25" r="1.5455594002306805" fill="#dcdcdc" fill-opacity="1"/><circle cx="811.7691453623979" cy="10" r="1.637831603229527" fill="#dcdcdc" fill-opacity="1"/><circle cx="803.1088913245535" cy="-5" r="1.7301038062283736" fill="#dcdcdc" fill-opacity="1"/><circle cx="794.4486372867091" cy="-20" r="1.8223760092272212" fill="#dcdcdc" fill-opacity="1"/><circle cx="205.55136271329087" cy="-20" r="7.312572087658592" fill="#dcdcdc" fill-opacity="1"/><circle cx="196.8911086754465" cy="-5" r="7.404844290657438" fill="#dcdcdc" fill-opacity="1"/><circle cx="188.23085463760214" cy="10" r="7.450980392156862" fill="#dcdcdc" fill-opacity="1"/><circle cx="179.5706005997577" cy="25" r="7.5432525951557095" fill="#dcdcdc" fill-opacity="1"/><circle cx="170.91034656191334" cy="40" r="7.635524798154556" fill="#dcdcdc" fill-opacity="1"/><circle cx="162.25009252406898" cy="55" r="7.727797001153402" fill="#dcdcdc" fill-opacity="1"/><circle cx="153.5898384862246" cy="70" r="7.7739331026528244" fill="#dcdcdc" fill-opacity="1"/><circle cx="144.92958444838018" cy="85" r="7.866205305651672" fill="#dcdcdc" fill-opacity="1"/><circle cx="136.26933041053582" cy="100" r="7.958477508650519" fill="#dcdcdc" fill-opacity="1"/><circle cx="144.92958444838018" cy="115" r="7.866205305651672" fill="#dcdcdc" fill-opacity="1"/><circle cx="153.5898384862246" cy="130" r="7.7739331026528244" fill="#dcdcdc" fill-opacity="1"/><circle cx="162.25009252406898" cy="145" r="7.727797001153402" fill="#dcdcdc" fill-opacity="1"/><circle cx="170.91034656191334" cy="160" r="7.635524798154556" fill="#dcdcdc" fill-opacity="1"/><circle cx="179.5706005997577" cy="175" r="7.5432525951557095" fill="#dcdcdc" fill-opacity="1"/><circle cx="188.23085463760214" cy="190" r="7.450980392156862" fill="#dcdcdc" fill-opacity="1"/><circle cx="196.8911086754465" cy="205" r="7.404844290657438" fill="#dcdcdc" fill-opacity="1"/><circle cx="205.55136271329087" cy="220" r="7.312572087658592" fill="#dcdcdc" fill-opacity="1"/><circle cx="811.7691453623979" cy="220" r="1.637831603229527" fill="#dcdcdc" fill-opacity="1"/><circle cx="820.4293994002423" cy="205" r="1.5455594002306805" fill="#dcdcdc" fill-opacity="1"/><circle cx="829.0896534380867" cy="190" r="1.4994232987312572" fill="#dcdcdc" fill-opacity="1"/><circle cx="837.749907475931" cy="175" r="1.4071510957324107" fill="#dcdcdc" fill-opacity="1"/><circle cx="846.4101615137754" cy="160" r="1.3148788927335642" fill="#dcdcdc" fill-opacity="1"/><circle cx="855.0704155516198" cy="145" r="1.2226066897347188" fill="#dcdcdc" fill-opacity="1"/><circle cx="863.7306695894642" cy="130" r="1.1764705882352955" fill="#dcdcdc" fill-opacity="1"/><circle cx="872.3909236273086" cy="115" r="1.0841983852364478" fill="#dcdcdc" fill-opacity="1"/><circle cx="881.051177665153" cy="100" r="0.9919261822376024" fill="#dcdcdc" fill-opacity="1"/><circle cx="872.3909236273086" cy="85" r="1.0841983852364478" fill="#dcdcdc" fill-opacity="1"/><circle cx="863.7306695894642" cy="70" r="1.1764705882352955" fill="#dcdcdc" fill-opacity="1"/><circle cx="855.0704155516198" cy="55" r="1.2226066897347188" fill="#dcdcdc" fill-opacity="1"/><circle cx="846.4101615137754" cy="40" r="1.3148788927335642" fill="#dcdcdc" fill-opacity="1"/><circle cx="837.749907475931" cy="25" r="1.4071510957324107" fill="#dcdcdc" fill-opacity="1"/><circle cx="829.0896534380867" cy="10" r="1.4994232987312572" fill="#dcdcdc" fill-opacity="1"/><circle cx="820.4293994002423" cy="-5" r="1.5455594002306805" fill="#dcdcdc" fill-opacity="1"/><circle cx="811.7691453623979" cy="-20" r="1.637831603229527" fill="#dcdcdc" fill-opacity="1"/><circle cx="188.23085463760214" cy="-20" r="7.450980392156862" fill="#dcdcdc" fill-opacity="1"/><circle cx="179.5706005997577" cy="-5" r="7.5432525951557095" fill="#dcdcdc" fill-opacity="1"/><circle cx="170.91034656191334" cy="10" r="7.635524798154556" fill="#dcdcdc" fill-opacity="1"/><circle cx="162.25009252406898" cy="25" r="7.727797001153402" fill="#dcdcdc" fill-opacity="1"/><circle cx="153.5898384862246" cy="40" r="7.7739331026528244" fill="#dcdcdc" fill-opacity="1"/><circle cx="144.92958444838018" cy="55" r="7.866205305651672" fill="#dcdcdc" fill-opacity="1"/><circle cx="136.26933041053582" cy="70" r="7.958477508650519" fill="#dcdcdc" fill-opacity="1"/><circle cx="127.60907637269145" cy="85" r="8.050749711649365" fill="#dcdcdc" fill-opacity="1"/><circle cx="118.94882233484702" cy="100" r="8.14302191464821" fill="#dcdcdc" fill-opacity="1"/><circle cx="127.60907637269145" cy="115" r="8.050749711649365" fill="#dcdcdc" fill-opacity="1"/><circle cx="136.26933041053582" cy="130" r="7.958477508650519" fill="#dcdcdc" fill-opacity="1"/><circle cx="144.92958444838018" cy="145" r="7.866205305651672" fill="#dcdcdc" fill-opacity="1"/><circle cx="153.5898384862246" cy="160" r="7.7739331026528244" fill="#dcdcdc" fill-opacity="1"/><circle cx="162.25009252406898" cy="175" r="7.727797001153402" fill="#dcdcdc" fill-opacity="1"/><circle cx="170.91034656191334" cy="190" r="7.635524798154556" fill="#dcdcdc" fill-opacity="1"/><circle cx="179.5706005997577" cy="205" r="7.5432525951557095" fill="#dcdcdc" fill-opacity="1"/><circle cx="188.23085463760214" cy="220" r="7.450980392156862" fill="#dcdcdc" fill-opacity="1"/><circle cx="829.0896534380867" cy="220" r="1.4994232987312572" fill="#dcdcdc" fill-opacity="1"/><circle cx="837.749907475931" cy="205" r="1.4071510957324107" fill="#dcdcdc" fill-opacity="1"/><circle cx="846.4101615137754" cy="190" r="1.3148788927335642" fill="#dcdcdc" fill-opacity="1"/><circle cx="855.0704155516198" cy="175" r="1.2226066897347188" fill="#dcdcdc" fill-opacity="1"/><circle cx="863.7306695894642" cy="160" r="1.1764705882352955" fill="#dcdcdc" fill-opacity="1"/><circle cx="872.3909236273086" cy="145" r="1.0841983852364478" fill="#dcdcdc" fill-opacity="1"/><circle cx="881.051177665153" cy="130" r="0.9919261822376024" fill="#dcdcdc" fill-opacity="1"/><circle cx="889.7114317029973" cy="115" r="0.9457900807381792" fill="#dcdcdc" fill-opacity="1"/><circle cx="898.3716857408417" cy="100" r="0.8535178777393304" fill="#dcdcdc" fill-opacity="1"/><circle cx="889.7114317029973" cy="85" r="0.9457900807381792" fill="#dcdcdc" fill-opacity="1"/><circle cx="881.051177665153" cy="70" r="0.9919261822376024" fill="#dcdcdc" fill-opacity="1"/><circle cx="872.3909236273086" cy="55" r="1.0841983852364478" fill="#dcdcdc" fill-opacity="1"/><circle cx="863.7306695894642" cy="40" r="1.1764705882352955" fill="#dcdcdc" fill-opacity="1"/><circle cx="855.0704155516198" cy="25" r="1.2226066897347188" fill="#dcdcdc" fill-opacity="1"/><circle cx="846.4101615137754" cy="10" r="1.3148788927335642" fill="#dcdcdc" fill-opacity="1"/><circle cx="837.749907475931" cy="-5" r="1.4071510957324107" fill="#dcdcdc" fill-opacity="1"/><circle cx="829.0896534380867" cy="-20" r="1.4994232987312572" fill="#dcdcdc" fill-opacity="1"/><circle cx="170.91034656191334" cy="-20" r="7.635524798154556" fill="#dcdcdc" fill-opacity="1"/><circle cx="162.25009252406898" cy="-5" r="7.727797001153402" fill="#dcdcdc" fill-opacity="1"/><circle cx="153.5898384862246" cy="10" r="7.7739331026528244" fill="#dcdcdc" fill-opacity="1"/><circle cx="144.92958444838018" cy="25" r="7.866205305651672" fill="#dcdcdc" fill-opacity="1"/><circle cx="136.26933041053582" cy="40" r="7.958477508650519" fill="#dcdcdc" fill-opacity="1"/><circle cx="127.60907637269145" cy="55" r="8.050749711649365" fill="#dcdcdc" fill-opacity="1"/><circle cx="118.94882233484702" cy="70" r="8.14302191464821" fill="#dcdcdc" fill-opacity="1"/><circle cx="110.28856829700266" cy="85" r="8.189158016147633" fill="#dcdcdc" fill-opacity="1"/><circle cx="101.62831425915829" cy="100" r="8.281430219146483" fill="#dcdcdc" fill-opacity="1"/><circle cx="110.28856829700266" cy="115" r="8.189158016147633" fill="#dcdcdc" fill-opacity="1"/><circle cx="118.94882233484702" cy="130" r="8.14302191464821" fill="#dcdcdc" fill-opacity="1"/><circle cx="127.60907637269145" cy="145" r="8.050749711649365" fill="#dcdcdc" fill-opacity="1"/><circle cx="136.26933041053582" cy="160" r="7.958477508650519" fill="#dcdcdc" fill-opacity="1"/><circle cx="144.92958444838018" cy="175" r="7.866205305651672" fill="#dcdcdc" fill-opacity="1"/><circle cx="153.5898384862246" cy="190" r="7.7739331026528244" fill="#dcdcdc" fill-opacity="1"/><circle cx="162.25009252406898" cy="205" r="7.727797001153402" fill="#dcdcdc" fill-opacity="1"/><circle cx="170.91034656191334" cy="220" r="7.635524798154556" fill="#dcdcdc" fill-opacity="1"/><circle cx="846.4101615137754" cy="220" r="1.3148788927335642" fill="#dcdcdc" fill-opacity="1"/><circle cx="855.0704155516198" cy="205" r="1.2226066897347188" fill="#dcdcdc" fill-opacity="1"/><circle cx="863.7306695894642" cy="190" r="1.1764705882352955" fill="#dcdcdc" fill-opacity="1"/><circle cx="872.3909236273086" cy="175" r="1.0841983852364478" fill="#dcdcdc" fill-opacity="1"/><circle cx="881.051177665153" cy="160" r="0.9919261822376024" fill="#dcdcdc" fill-opacity="1"/><circle cx="889.7114317029973" cy="145" r="0.9457900807381792" fill="#dcdcdc" fill-opacity="1"/><circle cx="898.3716857408417" cy="130" r="0.8535178777393304" fill="#dcdcdc" fill-opacity="1"/><circle cx="907.0319397786861" cy="115" r="0.7612456747404839" fill="#dcdcdc" fill-opacity="1"/><circle cx="915.6921938165306" cy="100" r="0.6689734717416373" fill="#dcdcdc" fill-opacity="1"/><circle cx="907.0319397786861" cy="85" r="0.7612456747404839" fill="#dcdcdc" fill-opacity="1"/><circle cx="898.3716857408417" cy="70" r="0.8535178777393304" fill="#dcdcdc" fill-opacity="1"/><circle cx="889.7114317029973" cy="55" r="0.9457900807381792" fill="#dcdcdc" fill-opacity="1"/><circle cx="881.051177665153" cy="40" r="0.9919261822376024" fill="#dcdcdc" fill-opacity="1"/><circle cx="872.3909236273086" cy="25" r="1.0841983852364478" fill="#dcdcdc" fill-opacity="1"/><circle cx="863.7306695894642" cy="10" r="1.1764705882352955" fill="#dcdcdc" fill-opacity="1"/><circle cx="855.0704155516198" cy="-5" r="1.2226066897347188" fill="#dcdcdc" fill-opacity="1"/><circle cx="846.4101615137754" cy="-20" r="1.3148788927335642" fill="#dcdcdc" fill-opacity="1"/><circle cx="153.5898384862246" cy="-20" r="7.7739331026528244" fill="#dcdcdc" fill-opacity="1"/><circle cx="144.92958444838018" cy="-5" r="7.866205305651672" fill="#dcdcdc" fill-opacity="1"/><circle cx="136.26933041053582" cy="10" r="7.958477508650519" fill="#dcdcdc" fill-opacity="1"/><circle cx="127.60907637269145" cy="25" r="8.050749711649365" fill="#dcdcdc" fill-opacity="1"/><circle cx="118.94882233484702" cy="40" r="8.14302191464821" fill="#dcdcdc" fill-opacity="1"/><circle cx="110.28856829700266" cy="55" r="8.189158016147633" fill="#dcdcdc" fill-opacity="1"/><circle cx="101.62831425915829" cy="70" r="8.281430219146483" fill="#dcdcdc" fill-opacity="1"/><circle cx="92.96806022131386" cy="85" r="8.373702422145328" fill="#dcdcdc" fill-opacity="1"/><circle cx="84.3078061834695" cy="100" r="8.419838523644751" fill="#dcdcdc" fill-opacity="1"/><circle cx="92.96806022131386" cy="115" r="8.373702422145328" fill="#dcdcdc" fill-opacity="1"/><circle cx="101.62831425915829" cy="130" r="8.281430219146483" fill="#dcdcdc" fill-opacity="1"/><circle cx="110.28856829700266" cy="145" r="8.189158016147633" fill="#dcdcdc" fill-opacity="1"/><circle cx="118.94882233484702" cy="160" r="8.14302191464821" fill="#dcdcdc" fill-opacity="1"/><circle cx="127.60907637269145" cy="175" r="8.050749711649365" fill="#dcdcdc" fill-opacity="1"/><circle cx="136.26933041053582" cy="190" r="7.958477508650519" fill="#dcdcdc" fill-opacity="1"/><circle cx="144.92958444838018" cy="205" r="7.866205305651672" fill="#dcdcdc" fill-opacity="1"/><circle cx="153.5898384862246" cy="220" r="7.7739331026528244" fill="#dcdcdc" fill-opacity="1"/><circle cx="863.7306695894642" cy="220" r="1.1764705882352955" fill="#dcdcdc" fill-opacity="1"/><circle cx="872.3909236273086" cy="205" r="1.0841983852364478" fill="#dcdcdc" fill-opacity="1"/><circle cx="881.051177665153" cy="190" r="0.9919261822376024" fill="#dcdcdc" fill-opacity="1"/><circle cx="889.7114317029973" cy="175" r="0.9457900807381792" fill="#dcdcdc" fill-opacity="1"/><circle cx="898.3716857408417" cy="160" r="0.8535178777393304" fill="#dcdcdc" fill-opacity="1"/><circle cx="907.0319397786861" cy="145" r="0.7612456747404839" fill="#dcdcdc" fill-opacity="1"/><circle cx="915.6921938165306" cy="130" r="0.6689734717416373" fill="#dcdcdc" fill-opacity="1"/><circle cx="924.3524478543749" cy="115" r="0.5767012687427908" fill="#dcdcdc" fill-opacity="1"/><circle cx="933.0127018922193" cy="100" r="0.5305651672433676" fill="#dcdcdc" fill-opacity="1"/><circle cx="924.3524478543749" cy="85" r="0.5767012687427908" fill="#dcdcdc" fill-opacity="1"/><circle cx="915.6921938165306" cy="70" r="0.6689734717416373" fill="#dcdcdc" fill-opacity="1"/><circle cx="907.0319397786861" cy="55" r="0.7612456747404839" fill="#dcdcdc" fill-opacity="1"/><circle cx="898.3716857408417" cy="40" r="0.8535178777393304" fill="#dcdcdc" fill-opacity="1"/><circle cx="889.7114317029973" cy="25" r="0.9457900807381792" fill="#dcdcdc" fill-opacity="1"/><circle cx="881.051177665153" cy="10" r="0.9919261822376024" fill="#dcdcdc" fill-opacity="1"/><circle cx="872.3909236273086" cy="-5" r="1.0841983852364478" fill="#dcdcdc" fill-opacity="1"/><circle cx="863.7306695894642" cy="-20" r="1.1764705882352955" fill="#dcdcdc" fill-opacity="1"/><circle cx="136.26933041053582" cy="-20" r="7.958477508650519" fill="#dcdcdc" fill-opacity="1"/><circle cx="127.60907637269145" cy="-5" r="8.050749711649365" fill="#dcdcdc" fill-opacity="1"/><circle cx="118.94882233484702" cy="10" r="8.14302191464821" fill="#dcdcdc" fill-opacity="1"/><circle cx="110.28856829700266" cy="25" r="8.189158016147633" fill="#dcdcdc" fill-opacity="1"/><circle cx="101.62831425915829" cy="40" r="8.281430219146483" fill="#dcdcdc" fill-opacity="1"/><circle cx="92.96806022131386" cy="55" r="8.373702422145328" fill="#dcdcdc" fill-opacity="1"/><circle cx="84.3078061834695" cy="70" r="8.419838523644751" fill="#dcdcdc" fill-opacity="1"/><circle cx="75.64755214562513" cy="85" r="8.512110726643598" fill="#dcdcdc" fill-opacity="1"/><circle cx="66.9872981077807" cy="100" r="8.604382929642444" fill="#dcdcdc" fill-opacity="1"/><circle cx="75.64755214562513" cy="115" r="8.512110726643598" fill="#dcdcdc" fill-opacity="1"/><circle cx="84.3078061834695" cy="130" r="8.419838523644751" fill="#dcdcdc" fill-opacity="1"/><circle cx="92.96806022131386" cy="145" r="8.373702422145328" fill="#dcdcdc" fill-opacity="1"/><circle cx="101.62831425915829" cy="160" r="8.281430219146483" fill="#dcdcdc" fill-opacity="1"/><circle cx="110.28856829700266" cy="175" r="8.189158016147633" fill="#dcdcdc" fill-opacity="1"/><circle cx="118.94882233484702" cy="190" r="8.14302191464821" fill="#dcdcdc" fill-opacity="1"/><circle cx="127.60907637269145" cy="205" r="8.050749711649365" fill="#dcdcdc" fill-opacity="1"/><circle cx="136.26933041053582" cy="220" r="7.958477508650519" fill="#dcdcdc" fill-opacity="1"/><circle cx="881.051177665153" cy="220" r="0.9919261822376024" fill="#dcdcdc" fill-opacity="1"/><circle cx="889.7114317029973" cy="205" r="0.9457900807381792" fill="#dcdcdc" fill-opacity="1"/><circle cx="898.3716857408417" cy="190" r="0.8535178777393304" fill="#dcdcdc" fill-opacity="1"/><circle cx="907.0319397786861" cy="175" r="0.7612456747404839" fill="#dcdcdc" fill-opacity="1"/><circle cx="915.6921938165306" cy="160" r="0.6689734717416373" fill="#dcdcdc" fill-opacity="1"/><circle cx="924.3524478543749" cy="145" r="0.5767012687427908" fill="#dcdcdc" fill-opacity="1"/><circle cx="933.0127018922193" cy="130" r="0.5305651672433676" fill="#dcdcdc" fill-opacity="1"/><circle cx="941.6729559300636" cy="115" r="0.438292964244521" fill="#dcdcdc" fill-opacity="1"/><circle cx="950.333209967908" cy="100" r="0.3460207612456745" fill="#dcdcdc" fill-opacity="1"/><circle cx="941.6729559300636" cy="85" r="0.438292964244521" fill="#dcdcdc" fill-opacity="1"/><circle cx="933.0127018922193" cy="70" r="0.5305651672433676" fill="#dcdcdc" fill-opacity="1"/><circle cx="924.3524478543749" cy="55" r="0.5767012687427908" fill="#dcdcdc" fill-opacity="1"/><circle cx="915.6921938165306" cy="40" r="0.6689734717416373" fill="#dcdcdc" fill-opacity="1"/><circle cx="907.0319397786861" cy="25" r="0.7612456747404839" fill="#dcdcdc" fill-opacity="1"/><circle cx="898.3716857408417" cy="10" r="0.8535178777393304" fill="#dcdcdc" fill-opacity="1"/><circle cx="889.7114317029973" cy="-5" r="0.9457900807381792" fill="#dcdcdc" fill-opacity="1"/><circle cx="881.051177665153" cy="-20" r="0.9919261822376024" fill="#dcdcdc" fill-opacity="1"/><circle cx="118.94882233484702" cy="-20" r="8.14302191464821" fill="#dcdcdc" fill-opacity="1"/><circle cx="110.28856829700266" cy="-5" r="8.189158016147633" fill="#dcdcdc" fill-opacity="1"/><circle cx="101.62831425915829" cy="10" r="8.281430219146483" fill="#dcdcdc" fill-opacity="1"/><circle cx="92.96806022131386" cy="25" r="8.373702422145328" fill="#dcdcdc" fill-opacity="1"/><circle cx="84.3078061834695" cy="40" r="8.419838523644751" fill="#dcdcdc" fill-opacity="1"/><circle cx="75.64755214562513" cy="55" r="8.512110726643598" fill="#dcdcdc" fill-opacity="1"/><circle cx="66.9872981077807" cy="70" r="8.604382929642444" fill="#dcdcdc" fill-opacity="1"/><circle cx="58.327044069936335" cy="85" r="8.696655132641292" fill="#dcdcdc" fill-opacity="1"/><circle cx="49.66679003209197" cy="100" r="8.788927335640137" fill="#dcdcdc" fill-opacity="1"/><circle cx="58.327044069936335" cy="115" r="8.696655132641292" fill="#dcdcdc" fill-opacity="1"/><circle cx="66.9872981077807" cy="130" r="8.604382929642444" fill="#dcdcdc" fill-opacity="1"/><circle cx="75.64755214562513" cy="145" r="8.512110726643598" fill="#dcdcdc" fill-opacity="1"/><circle cx="84.3078061834695" cy="160" r="8.419838523644751" fill="#dcdcdc" fill-opacity="1"/><circle cx="92.96806022131386" cy="175" r="8.373702422145328" fill="#dcdcdc" fill-opacity="1"/><circle cx="101.62831425915829" cy="190" r="8.281430219146483" fill="#dcdcdc" fill-opacity="1"/><circle cx="110.28856829700266" cy="205" r="8.189158016147633" fill="#dcdcdc" fill-opacity="1"/><circle cx="118.94882233484702" cy="220" r="8.14302191464821" fill="#dcdcdc" fill-opacity="1"/><circle cx="898.3716857408417" cy="220" r="0.8535178777393304" fill="#dcdcdc" fill-opacity="1"/><circle cx="907.0319397786861" cy="205" r="0.7612456747404839" fill="#dcdcdc" fill-opacity="1"/><circle cx="915.6921938165306" cy="190" r="0.6689734717416373" fill="#dcdcdc" fill-opacity="1"/><circle cx="924.3524478543749" cy="175" r="0.5767012687427908" fill="#dcdcdc" fill-opacity="1"/><circle cx="933.0127018922193" cy="160" r="0.5305651672433676" fill="#dcdcdc" fill-opacity="1"/><circle cx="941.6729559300636" cy="145" r="0.438292964244521" fill="#dcdcdc" fill-opacity="1"/><circle cx="950.333209967908" cy="130" r="0.3460207612456745" fill="#dcdcdc" fill-opacity="1"/><circle cx="958.9934640057525" cy="115" r="0.29988465974625234" fill="#dcdcdc" fill-opacity="1"/><circle cx="967.6537180435969" cy="100" r="0.2076124567474058" fill="#dcdcdc" fill-opacity="1"/><circle cx="958.9934640057525" cy="85" r="0.29988465974625234" fill="#dcdcdc" fill-opacity="1"/><circle cx="950.333209967908" cy="70" r="0.3460207612456745" fill="#dcdcdc" fill-opacity="1"/><circle cx="941.6729559300636" cy="55" r="0.438292964244521" fill="#dcdcdc" fill-opacity="1"/><circle cx="933.0127018922193" cy="40" r="0.5305651672433676" fill="#dcdcdc" fill-opacity="1"/><circle cx="924.3524478543749" cy="25" r="0.5767012687427908" fill="#dcdcdc" fill-opacity="1"/><circle cx="915.6921938165306" cy="10" r="0.6689734717416373" fill="#dcdcdc" fill-opacity="1"/><circle cx="907.0319397786861" cy="-5" r="0.7612456747404839" fill="#dcdcdc" fill-opacity="1"/><circle cx="898.3716857408417" cy="-20" r="0.8535178777393304" fill="#dcdcdc" fill-opacity="1"/><circle cx="101.62831425915829" cy="-20" r="8.281430219146483" fill="#dcdcdc" fill-opacity="1"/><circle cx="92.96806022131386" cy="-5" r="8.373702422145328" fill="#dcdcdc" fill-opacity="1"/><circle cx="84.3078061834695" cy="10" r="8.419838523644751" fill="#dcdcdc" fill-opacity="1"/><circle cx="75.64755214562513" cy="25" r="8.512110726643598" fill="#dcdcdc" fill-opacity="1"/><circle cx="66.9872981077807" cy="40" r="8.604382929642444" fill="#dcdcdc" fill-opacity="1"/><circle cx="58.327044069936335" cy="55" r="8.696655132641292" fill="#dcdcdc" fill-opacity="1"/><circle cx="49.66679003209197" cy="70" r="8.788927335640137" fill="#dcdcdc" fill-opacity="1"/><circle cx="41.00653599424754" cy="85" r="8.83506343713956" fill="#dcdcdc" fill-opacity="1"/><circle cx="32.346281956403175" cy="100" r="8.927335640138407" fill="#dcdcdc" fill-opacity="1"/><circle cx="41.00653599424754" cy="115" r="8.83506343713956" fill="#dcdcdc" fill-opacity="1"/><circle cx="49.66679003209197" cy="130" r="8.788927335640137" fill="#dcdcdc" fill-opacity="1"/><circle cx="58.327044069936335" cy="145" r="8.696655132641292" fill="#dcdcdc" fill-opacity="1"/><circle cx="66.9872981077807" cy="160" r="8.604382929642444" fill="#dcdcdc" fill-opacity="1"/><circle cx="75.64755214562513" cy="175" r="8.512110726643598" fill="#dcdcdc" fill-opacity="1"/><circle cx="84.3078061834695" cy="190" r="8.419838523644751" fill="#dcdcdc" fill-opacity="1"/><circle cx="92.96806022131386" cy="205" r="8.373702422145328" fill="#dcdcdc" fill-opacity="1"/><circle cx="101.62831425915829" cy="220" r="8.281430219146483" fill="#dcdcdc" fill-opacity="1"/><circle cx="915.6921938165306" cy="220" r="0.6689734717416373" fill="#dcdcdc" fill-opacity="1"/><circle cx="924.3524478543749" cy="205" r="0.5767012687427908" fill="#dcdcdc" fill-opacity="1"/><circle cx="933.0127018922193" cy="190" r="0.5305651672433676" fill="#dcdcdc" fill-opacity="1"/><circle cx="941.6729559300636" cy="175" r="0.438292964244521" fill="#dcdcdc" fill-opacity="1"/><circle cx="950.333209967908" cy="160" r="0.3460207612456745" fill="#dcdcdc" fill-opacity="1"/><circle cx="958.9934640057525" cy="145" r="0.29988465974625234" fill="#dcdcdc" fill-opacity="1"/><circle cx="967.6537180435969" cy="130" r="0.2076124567474058" fill="#dcdcdc" fill-opacity="1"/><circle cx="976.3139720814412" cy="115" r="0.11534025374855816" fill="#dcdcdc" fill-opacity="1"/><circle cx="984.9742261192856" cy="100" r="0.06920415224913601" fill="#dcdcdc" fill-opacity="1"/><circle cx="976.3139720814412" cy="85" r="0.11534025374855816" fill="#dcdcdc" fill-opacity="1"/><circle cx="967.6537180435969" cy="70" r="0.2076124567474058" fill="#dcdcdc" fill-opacity="1"/><circle cx="958.9934640057525" cy="55" r="0.29988465974625234" fill="#dcdcdc" fill-opacity="1"/><circle cx="950.333209967908" cy="40" r="0.3460207612456745" fill="#dcdcdc" fill-opacity="1"/><circle cx="941.6729559300636" cy="25" r="0.438292964244521" fill="#dcdcdc" fill-opacity="1"/><circle cx="933.0127018922193" cy="10" r="0.5305651672433676" fill="#dcdcdc" fill-opacity="1"/><circle cx="924.3524478543749" cy="-5" r="0.5767012687427908" fill="#dcdcdc" fill-opacity="1"/><circle cx="915.6921938165306" cy="-20" r="0.6689734717416373" fill="#dcdcdc" fill-opacity="1"/><circle cx="84.3078061834695" cy="-20" r="8.419838523644751" fill="#dcdcdc" fill-opacity="1"/><circle cx="75.64755214562513" cy="-5" r="8.512110726643598" fill="#dcdcdc" fill-opacity="1"/><circle cx="66.9872981077807" cy="10" r="8.604382929642444" fill="#dcdcdc" fill-opacity="1"/><circle cx="58.327044069936335" cy="25" r="8.696655132641292" fill="#dcdcdc" fill-opacity="1"/><circle cx="49.66679003209197" cy="40" r="8.788927335640137" fill="#dcdcdc" fill-opacity="1"/><circle cx="41.00653599424754" cy="55" r="8.83506343713956" fill="#dcdcdc" fill-opacity="1"/><circle cx="32.346281956403175" cy="70" r="8.927335640138407" fill="#dcdcdc" fill-opacity="1"/><circle cx="23.686027918558807" cy="85" r="8.973471741637832" fill="#dcdcdc" fill-opacity="1"/><circle cx="15.025773880714382" cy="100" r="9.065743944636678" fill="#dcdcdc" fill-opacity="1"/><circle cx="23.686027918558807" cy="115" r="8.973471741637832" fill="#dcdcdc" fill-opacity="1"/><circle cx="32.346281956403175" cy="130" r="8.927335640138407" fill="#dcdcdc" fill-opacity="1"/><circle cx="41.00653599424754" cy="145" r="8.83506343713956" fill="#dcdcdc" fill-opacity="1"/><circle cx="49.66679003209197" cy="160" r="8.788927335640137" fill="#dcdcdc" fill-opacity="1"/><circle cx="58.327044069936335" cy="175" r="8.696655132641292" fill="#dcdcdc" fill-opacity="1"/><circle cx="66.9872981077807" cy="190" r="8.604382929642444" fill="#dcdcdc" fill-opacity="1"/><circle cx="75.64755214562513" cy="205" r="8.512110726643598" fill="#dcdcdc" fill-opacity="1"/><circle cx="84.3078061834695" cy="220" r="8.419838523644751" fill="#dcdcdc" fill-opacity="1"/><circle cx="933.0127018922193" cy="220" r="0.5305651672433676" fill="#dcdcdc" fill-opacity="1"/><circle cx="941.6729559300636" cy="205" r="0.438292964244521" fill="#dcdcdc" fill-opacity="1"/><circle cx="950.333209967908" cy="190" r="0.3460207612456745" fill="#dcdcdc" fill-opacity="1"/><circle cx="958.9934640057525" cy="175" r="0.29988465974625234" fill="#dcdcdc" fill-opacity="1"/><circle cx="967.6537180435969" cy="160" r="0.2076124567474058" fill="#dcdcdc" fill-opacity="1"/><circle cx="976.3139720814412" cy="145" r="0.11534025374855816" fill="#dcdcdc" fill-opacity="1"/><circle cx="984.9742261192856" cy="130" r="0.06920415224913601" fill="#dcdcdc" fill-opacity="1"/><circle cx="993.6344801571299" cy="115" r="0.023068050749711633" fill="#dcdcdc" fill-opacity="1"/><circle cx="993.6344801571299" cy="85" r="0.023068050749711633" fill="#dcdcdc" fill-opacity="1"/><circle cx="984.9742261192856" cy="70" r="0.06920415224913601" fill="#dcdcdc" fill-opacity="1"/><circle cx="976.3139720814412" cy="55" r="0.11534025374855816" fill="#dcdcdc" fill-opacity="1"/><circle cx="967.6537180435969" cy="40" r="0.2076124567474058" fill="#dcdcdc" fill-opacity="1"/><circle cx="958.9934640057525" cy="25" r="0.29988465974625234" fill="#dcdcdc" fill-opacity="1"/><circle cx="950.333209967908" cy="10" r="0.3460207612456745" fill="#dcdcdc" fill-opacity="1"/><circle cx="941.6729559300636" cy="-5" r="0.438292964244521" fill="#dcdcdc" fill-opacity="1"/><circle cx="933.0127018922193" cy="-20" r="0.5305651672433676" fill="#dcdcdc" fill-opacity="1"/><circle cx="66.9872981077807" cy="-20" r="8.604382929642444" fill="#dcdcdc" fill-opacity="1"/><circle cx="58.327044069936335" cy="-5" r="8.696655132641292" fill="#dcdcdc" fill-opacity="1"/><circle cx="49.66679003209197" cy="10" r="8.788927335640137" fill="#dcdcdc" fill-opacity="1"/><circle cx="41.00653599424754" cy="25" r="8.83506343713956" fill="#dcdcdc" fill-opacity="1"/><circle cx="32.346281956403175" cy="40" r="8.927335640138407" fill="#dcdcdc" fill-opacity="1"/><circle cx="23.686027918558807" cy="55" r="8.973471741637832" fill="#dcdcdc" fill-opacity="1"/><circle cx="15.025773880714382" cy="70" r="9.065743944636678" fill="#dcdcdc" fill-opacity="1"/><circle cx="6.365519842870015" cy="85" r="9.1118800461361" fill="#dcdcdc" fill-opacity="1"/><circle cx="-2.294734194974353" cy="100" r="9.158016147635523" fill="#dcdcdc" fill-opacity="1"/><circle cx="6.365519842870015" cy="115" r="9.1118800461361" fill="#dcdcdc" fill-opacity="1"/><circle cx="15.025773880714382" cy="130" r="9.065743944636678" fill="#dcdcdc" fill-opacity="1"/><circle cx="23.686027918558807" cy="145" r="8.973471741637832" fill="#dcdcdc" fill-opacity="1"/><circle cx="32.346281956403175" cy="160" r="8.927335640138407" fill="#dcdcdc" fill-opacity="1"/><circle cx="41.00653599424754" cy="175" r="8.83506343713956" fill="#dcdcdc" fill-opacity="1"/><circle cx="49.66679003209197" cy="190" r="8.788927335640137" fill="#dcdcdc" fill-opacity="1"/><circle cx="58.327044069936335" cy="205" r="8.696655132641292" fill="#dcdcdc" fill-opacity="1"/><circle cx="66.9872981077807" cy="220" r="8.604382929642444" fill="#dcdcdc" fill-opacity="1"/><circle cx="950.333209967908" cy="220" r="0.3460207612456745" fill="#dcdcdc" fill-opacity="1"/><circle cx="958.9934640057525" cy="205" r="0.29988465974625234" fill="#dcdcdc" fill-opacity="1"/><circle cx="967.6537180435969" cy="190" r="0.2076124567474058" fill="#dcdcdc" fill-opacity="1"/><circle cx="976.3139720814412" cy="175" r="0.11534025374855816" fill="#dcdcdc" fill-opacity="1"/><circle cx="984.9742261192856" cy="160" r="0.06920415224913601" fill="#dcdcdc" fill-opacity="1"/><circle cx="993.6344801571299" cy="145" r="0.023068050749711633" fill="#dcdcdc" fill-opacity="1"/><circle cx="993.6344801571299" cy="55" r="0.023068050749711633" fill="#dcdcdc" fill-opacity="1"/><circle cx="984.9742261192856" cy="40" r="0.06920415224913601" fill="#dcdcdc" fill-opacity="1"/><circle cx="976.3139720814412" cy="25" r="0.11534025374855816" fill="#dcdcdc" fill-opacity="1"/><circle cx="967.6537180435969" cy="10" r="0.2076124567474058" fill="#dcdcdc" fill-opacity="1"/><circle cx="958.9934640057525" cy="-5" r="0.29988465974625234" fill="#dcdcdc" fill-opacity="1"/><circle cx="950.333209967908" cy="-20" r="0.3460207612456745" fill="#dcdcdc" fill-opacity="1"/><circle cx="49.66679003209197" cy="-20" r="8.788927335640137" fill="#dcdcdc" fill-opacity="1"/><circle cx="41.00653599424754" cy="-5" r="8.83506343713956" fill="#dcdcdc" fill-opacity="1"/><circle cx="32.346281956403175" cy="10" r="8.927335640138407" fill="#dcdcdc" fill-opacity="1"/><circle cx="23.686027918558807" cy="25" r="8.973471741637832" fill="#dcdcdc" fill-opacity="1"/><circle cx="15.025773880714382" cy="40" r="9.065743944636678" fill="#dcdcdc" fill-opacity="1"/><circle cx="6.365519842870015" cy="55" r="9.1118800461361" fill="#dcdcdc" fill-opacity="1"/><circle cx="-2.294734194974353" cy="70" r="9.158016147635523" fill="#dcdcdc" fill-opacity="1"/><circle cx="-10.954988232818721" cy="85" r="9.158016147635523" fill="#dcdcdc" fill-opacity="1"/><circle cx="-19.61524227066309" cy="100" r="9.158016147635523" fill="#dcdcdc" fill-opacity="1"/><circle cx="-10.954988232818721" cy="115" r="9.158016147635523" fill="#dcdcdc" fill-opacity="1"/><circle cx="-2.294734194974353" cy="130" r="9.158016147635523" fill="#dcdcdc" fill-opacity="1"/><circle cx="6.365519842870015" cy="145" r="9.1118800461361" fill="#dcdcdc" fill-opacity="1"/><circle cx="15.025773880714382" cy="160" r="9.065743944636678" fill="#dcdcdc" fill-opacity="1"/><circle cx="23.686027918558807" cy="175" r="8.973471741637832" fill="#dcdcdc" fill-opacity="1"/><circle cx="32.346281956403175" cy="190" r="8.927335640138407" fill="#dcdcdc" fill-opacity="1"/><circle cx="41.00653599424754" cy="205" r="8.83506343713956" fill="#dcdcdc" fill-opacity="1"/><circle cx="49.66679003209197" cy="220" r="8.788927335640137" fill="#dcdcdc" fill-opacity="1"/><circle cx="967.6537180435969" cy="220" r="0.2076124567474058" fill="#dcdcdc" fill-opacity="1"/><circle cx="976.3139720814412" cy="205" r="0.11534025374855816" fill="#dcdcdc" fill-opacity="1"/><circle cx="984.9742261192856" cy="190" r="0.06920415224913601" fill="#dcdcdc" fill-opacity="1"/><circle cx="993.6344801571299" cy="175" r="0.023068050749711633" fill="#dcdcdc" fill-opacity="1"/><circle cx="993.6344801571299" cy="25" r="0.023068050749711633" fill="#dcdcdc" fill-opacity="1"/><circle cx="984.9742261192856" cy="10" r="0.06920415224913601" fill="#dcdcdc" fill-opacity="1"/><circle cx="976.3139720814412" cy="-5" r="0.11534025374855816" fill="#dcdcdc" fill-opacity="1"/><circle cx="967.6537180435969" cy="-20" r="0.2076124567474058" fill="#dcdcdc" fill-opacity="1"/><circle cx="32.346281956403175" cy="-20" r="8.927335640138407" fill="#dcdcdc" fill-opacity="1"/><circle cx="23.686027918558807" cy="-5" r="8.973471741637832" fill="#dcdcdc" fill-opacity="1"/><circle cx="15.025773880714382" cy="10" r="9.065743944636678" fill="#dcdcdc" fill-opacity="1"/><circle cx="6.365519842870015" cy="25" r="9.1118800461361" fill="#dcdcdc" fill-opacity="1"/><circle cx="-2.294734194974353" cy="40" r="9.158016147635523" fill="#dcdcdc" fill-opacity="1"/><circle cx="-10.954988232818721" cy="55" r="9.158016147635523" fill="#dcdcdc" fill-opacity="1"/><circle cx="-19.61524227066309" cy="70" r="9.158016147635523" fill="#dcdcdc" fill-opacity="1"/><circle cx="-19.61524227066309" cy="130" r="9.158016147635523" fill="#dcdcdc" fill-opacity="1"/><circle cx="-10.954988232818721" cy="145" r="9.158016147635523" fill="#dcdcdc" fill-opacity="1"/><circle cx="-2.294734194974353" cy="160" r="9.158016147635523" fill="#dcdcdc" fill-opacity="1"/><circle cx="6.365519842870015" cy="175" r="9.1118800461361" fill="#dcdcdc" fill-opacity="1"/><circle cx="15.025773880714382" cy="190" r="9.065743944636678" fill="#dcdcdc" fill-opacity="1"/><circle cx="23.686027918558807" cy="205" r="8.973471741637832" fill="#dcdcdc" fill-opacity="1"/><circle cx="32.346281956403175" cy="220" r="8.927335640138407" fill="#dcdcdc" fill-opacity="1"/><circle cx="984.9742261192856" cy="220" r="0.06920415224913601" fill="#dcdcdc" fill-opacity="1"/><circle cx="993.6344801571299" cy="205" r="0.023068050749711633" fill="#dcdcdc" fill-opacity="1"/><circle cx="993.6344801571299" cy="-5" r="0.023068050749711633" fill="#dcdcdc" fill-opacity="1"/><circle cx="984.9742261192856" cy="-20" r="0.06920415224913601" fill="#dcdcdc" fill-opacity="1"/><circle cx="15.025773880714382" cy="-20" r="9.065743944636678" fill="#dcdcdc" fill-opacity="1"/><circle cx="6.365519842870015" cy="-5" r="9.1118800461361" fill="#dcdcdc" fill-opacity="1"/><circle cx="-2.294734194974353" cy="10" r="9.158016147635523" fill="#dcdcdc" fill-opacity="1"/><circle cx="-10.954988232818721" cy="25" r="9.158016147635523" fill="#dcdcdc" fill-opacity="1"/><circle cx="-19.61524227066309" cy="40" r="9.158016147635523" fill="#dcdcdc" fill-opacity="1"/><circle cx="-19.61524227066309" cy="160" r="9.158016147635523" fill="#dcdcdc" fill-opacity="1"/><circle cx="-10.954988232818721" cy="175" r="9.158016147635523" fill="#dcdcdc" fill-opacity="1"/><circle cx="-2.294734194974353" cy="190" r="9.158016147635523" fill="#dcdcdc" fill-opacity="1"/><circle cx="6.365519842870015" cy="205" r="9.1118800461361" fill="#dcdcdc" fill-opacity="1"/><circle cx="15.025773880714382" cy="220" r="9.065743944636678" fill="#dcdcdc" fill-opacity="1"/><circle cx="-2.294734194974353" cy="-20" r="9.158016147635523" fill="#dcdcdc" fill-opacity="1"/><circle cx="-10.954988232818721" cy="-5" r="9.158016147635523" fill="#dcdcdc" fill-opacity="1"/><circle cx="-19.61524227066309" cy="10" r="9.158016147635523" fill="#dcdcdc" fill-opacity="1"/><circle cx="-19.61524227066309" cy="190" r="9.158016147635523" fill="#dcdcdc" fill-opacity="1"/><circle cx="-10.954988232818721" cy="205" r="9.158016147635523" fill="#dcdcdc" fill-opacity="1"/><circle cx="-2.294734194974353" cy="220" r="9.158016147635523" fill="#dcdcdc" fill-opacity="1"/><circle cx="-19.61524227066309" cy="-20" r="9.158016147635523" fill="#dcdcdc" fill-opacity="1"/><circle cx="-19.61524227066309" cy="220" r="9.158016147635523" fill="#dcdcdc" fill-opacity="1"/></g></svg>